<?xml version="1.0" encoding="UTF-8" standalone="no"?>
<!-- Created with Inkscape (http://www.inkscape.org/) -->

<svg
   width="30"
   height="30"
   viewBox="0 0 7.9374998 7.9375002"
   version="1.1"
   id="svg5"
   xmlns="http://www.w3.org/2000/svg"
   xmlns:svg="http://www.w3.org/2000/svg">
  <defs
     id="defs2" />
  <g
     id="layer1">
    <rect
       style="fill:#000000;fill-rule:evenodd;stroke-width:0.259492"
       id="rect258"
       width="3.8923812"
       height="5.7088256"
       x="3.4724858"
       y="-1.3938116"
       transform="rotate(30)"
       ry="0.50872087" />
    <path
       id="path1952"
       d="M 1.4855701,2.8674427 1.0029845,1.9850698 0.12061146,1.5024842 1.0029845,1.0198984 1.48557,0.13752542 1.9681559,1.0198984 2.8505288,1.5024841 1.9681559,1.9850698 Z"
       style="stroke-width:0.682479" />
    <path
       style="fill:#000000;stroke-width:0.242788"
       id="path2042"
       d="M 10.40004,5.5098619 10.228363,5.1959635 9.9144646,5.0242868 10.228363,4.8526099 10.40004,4.5387114 l 0.171677,0.3138985 0.313898,0.1716767 -0.313898,0.1716769 z" />
    <path
       style="fill:#000000;stroke-width:0.481099"
       id="path2046"
       d="m 6.8270192,2.0990254 -0.340188,-0.62201 -0.62201,-0.3401883 0.62201,-0.34018851 0.340188,-0.62201 0.340188,0.62201 0.62201,0.34018831 -0.62201,0.3401885 z" />
    <rect
       style="fill:#000000;fill-rule:evenodd;stroke-width:0.259492"
       id="rect3686"
       width="3.8922853"
       height="5.7088256"
       x="3.4724858"
       y="-1.3938116"
       transform="rotate(30)"
       ry="0.50872087" />
    <path
       style="fill:#000000;stroke-width:0.277513"
       id="path1070"
       d="M 0.92084308,4.255392 0.724612,3.8965977 0.36581786,3.7003668 0.724612,3.5041357 0.92084298,3.1453417 1.1170741,3.5041357 1.4758683,3.7003667 1.1170741,3.8965977 Z" />
    <path
       style="fill:#000000;stroke-width:0.271202"
       id="path1072"
       d="M 7.0899243,4.50111 6.8981555,4.1504747 6.5475202,3.9587059 6.8981555,3.766937 7.0899243,3.4163017 7.2816931,3.766937 7.6323285,3.9587059 7.2816931,4.1504747 Z" />
    <path
       style="fill:#000000;stroke-width:0.242788"
       id="path1173"
       d="M 9.5743937,1.0090914 9.4027168,0.69519303 9.0888184,0.52351634 9.4027168,0.35183944 9.5743937,0.03794094 9.7460705,0.35183944 10.059969,0.52351614 9.7460705,0.69519303 Z" />
    <path
       id="path1244"
       d="M 6.4646222,7.7060799 5.9820366,6.823707 5.0996635,6.3411214 5.9820366,5.8585356 6.4646221,4.9761626 6.947208,5.8585356 7.8295811,6.3411213 6.947208,6.823707 Z"
       style="stroke-width:0.682479" />
    <path
       style="fill:#000000;stroke-width:0.481099"
       id="path1350"
       d="m 1.1041777,7.7508381 -0.34018806,-0.62201 -0.62201,-0.3401883 0.62201,-0.3401886 0.34018806,-0.62201 0.340188,0.62201 0.62201,0.3401884 -0.62201,0.3401885 z" />
  </g>
</svg>
