<?xml version="1.0" encoding="UTF-8" standalone="no"?>
<!-- Created with Inkscape (http://www.inkscape.org/) -->

<svg
   width="30"
   height="30"
   viewBox="0 0 7.9374998 7.9375002"
   version="1.1"
   id="svg5"
   xmlns="http://www.w3.org/2000/svg"
   xmlns:svg="http://www.w3.org/2000/svg">
  <defs
     id="defs2" />
  <g
     id="layer1">
    <rect
       style="fill:#000000;fill-rule:evenodd;stroke-width:0.259492"
       id="rect258"
       width="3.8923812"
       height="5.7088256"
       x="3.4724858"
       y="-1.3938116"
       transform="rotate(30)"
       ry="0.50872087" />
    <path
       id="path1952"
       d="M 1.4170426,2.723328 1.0860419,2.1181172 0.48083106,1.7871166 1.0860419,1.4561158 1.4170425,0.85090502 1.7480433,1.4561158 2.3532541,1.7871165 1.7480433,2.1181172 Z"
       style="stroke-width:0.468106" />
    <path
       style="fill:#000000;stroke-width:0.242788"
       id="path2042"
       d="M 1.2899576,7.4244451 1.1182807,7.1105467 0.80438229,6.93887 1.1182807,6.7671931 1.2899576,6.4532946 1.4616344,6.7671931 1.7755328,6.9388698 1.4616344,7.1105467 Z" />
    <path
       style="fill:#000000;stroke-width:0.481099"
       id="path2046"
       d="m 6.6143605,7.3941701 -0.3401885,-0.62201 -0.62201,-0.3401883 0.62201,-0.3401885 0.3401883,-0.62201 0.3401885,0.62201 0.62201,0.3401883 -0.62201,0.3401885 z" />
    <rect
       style="fill:#000000;fill-rule:evenodd;stroke-width:0.259492"
       id="rect3686"
       width="3.8923812"
       height="5.7088256"
       x="3.4724858"
       y="-1.3938116"
       transform="rotate(30)"
       ry="0.50872087" />
    <path
       style="fill:#000000;stroke-width:0.277513"
       id="path1070"
       d="M 0.92084308,4.255392 0.724612,3.8965977 0.36581786,3.7003668 0.724612,3.5041357 0.92084298,3.1453417 1.1170741,3.5041357 1.4758683,3.7003667 1.1170741,3.8965977 Z" />
    <path
       style="fill:#000000;stroke-width:0.271202"
       id="path1072"
       d="M 7.207333,4.9055196 7.0155642,4.5548843 6.6649289,4.3631155 7.0155642,4.1713466 7.207333,3.8207113 7.3991018,4.1713466 7.7497372,4.3631155 7.3991018,4.5548843 Z" />
    <path
       style="fill:#000000;stroke-width:0.242788"
       id="path1173"
       d="M 6.6929958,1.4409755 6.5213189,1.1270771 6.2074205,0.95540041 6.5213189,0.78372351 6.6929958,0.46982501 6.8646726,0.78372351 7.178571,0.95540021 6.8646726,1.1270771 Z" />
  </g>
</svg>
