<svg id="Layer_5" data-name="Layer 5" xmlns="http://www.w3.org/2000/svg" width="702" height="468.16" viewBox="0 0 702 468.16">
  <defs>
    <style>
      .cls-1, .cls-11, .cls-8 {
        fill: none;
      }

      .cls-1, .cls-10, .cls-11, .cls-2, .cls-3, .cls-4, .cls-5, .cls-6, .cls-7, .cls-8, .cls-9 {
        stroke: #000;
      }

      .cls-1, .cls-10, .cls-11, .cls-3, .cls-4, .cls-5, .cls-6, .cls-7, .cls-8 {
        stroke-linecap: round;
      }

      .cls-1, .cls-11, .cls-3, .cls-4, .cls-5, .cls-7, .cls-8 {
        stroke-linejoin: round;
      }

      .cls-1, .cls-10, .cls-4, .cls-5 {
        stroke-width: 2px;
      }

      .cls-10, .cls-2, .cls-6, .cls-9 {
        stroke-miterlimit: 10;
      }

      .cls-2, .cls-3, .cls-6 {
        stroke-width: 0.75px;
      }

      .cls-10, .cls-5 {
        fill: #fff;
      }

      .cls-8 {
        stroke-width: 3px;
      }
    </style>
  </defs>
  <g>
    <path d="M251.25,9.75v133.5H9.75V76.48A66.8,66.8,0,0,1,76.48,9.75H251.25M252,9H76.48A67.48,67.48,0,0,0,9,76.48V144H252V9Z" transform="translate(-9 -9)"/>
    <path d="M125.25,144.75v178.5H9.75V144.75h115.5M126,144H9V324H126V144Z" transform="translate(-9 -9)"/>
    <path d="M350.25,144.75v178.5H126.75V144.75h223.5M351,144H126V324H351V144Z" transform="translate(-9 -9)"/>
    <path d="M494.25,9.75v313.5H351.75V9.75h142.5M495,9H351V324H495V9Z" transform="translate(-9 -9)"/>
    <path d="M350.25,9.75v133.5h-97.5V9.75h97.5M351,9H252V144h99V9Z" transform="translate(-9 -9)"/>
    <path d="M251.25,324.75v151.5H76.48A66.8,66.8,0,0,1,9.75,409.52V324.75h241.5M252,324H9v85.52A67.48,67.48,0,0,0,76.48,477H252V324Z" transform="translate(-9 -9)"/>
    <path d="M494.25,324.75v151.5H252.75V324.75h241.5M495,324H252V477H495V324Z" transform="translate(-9 -9)"/>
    <path d="M643.52,9.75a66.8,66.8,0,0,1,66.73,66.73v66.77H495.75V9.75H643.52m0-.75H495V144H711V76.48A67.48,67.48,0,0,0,643.52,9Z" transform="translate(-9 -9)"/>
    <path d="M710.25,144.75v178.5h-97.5V144.75h97.5M711,144H612V324h99V144Z" transform="translate(-9 -9)"/>
    <path d="M611.25,144.75v178.5H495.75V144.75h115.5M612,144H495V324H612V144Z" transform="translate(-9 -9)"/>
    <path d="M710.25,324.75v84.77a66.8,66.8,0,0,1-66.73,66.73H495.75V324.75h214.5M711,324H495V477H643.52A67.48,67.48,0,0,0,711,409.52V324Z" transform="translate(-9 -9)"/>
  </g>
  <path d="M643.52,10A66.55,66.55,0,0,1,710,76.48v333A66.55,66.55,0,0,1,643.52,476h-567A66.55,66.55,0,0,1,10,409.52v-333A66.55,66.55,0,0,1,76.48,10h567m0-1h-567A67.48,67.48,0,0,0,9,76.48v333A67.48,67.48,0,0,0,76.48,477h567A67.48,67.48,0,0,0,711,409.52v-333A67.48,67.48,0,0,0,643.52,9Z" transform="translate(-9 -9)"/>
  <path class="cls-1" d="M114,107c0,1,0,2.61,0,3.78.13,4,0-.06.13,3,.13,2.35.32,2.6,1.31,3.92,2.34,3.13,12.28,3,16,2.34,1.56-.26,7.57-.91,7.57-4.3,0-2.64.12-3.12,0-4.17-.69,0-.45.19-1.18.13-1.3-.1-1.6-.2-2.72-.28h.55c19.52-.89,22.14-11.88,22.39-28.67.39-25.31-9.73-31.48-27.13-33.39-16.38-1.81-25.58,7.11-26.12,23.47-6.23-.78-5.41,6.71-3.75,12.79,1.56,5.74,3.52,5.35,5.22,5.35a11.63,11.63,0,0,0,1.17-.13c1.15,4.45,3.78,8.67,3.39,8.47" transform="translate(-9 -9)"/>
  <path class="cls-2" d="M153.3,73c0-.69-5-3.17-8.08-1.43-.27.15-2.17.62-2,1,.19.66,2.94.57,5.17.12C149.68,72.49,153.3,73.47,153.3,73Z" transform="translate(-9 -9)"/>
  <path class="cls-3" d="M118.66,72.68c0-.7,5.55-2.57,9.23-.72.33.16,1.69.85,1.56,1.27-.21.66-2.58.13-5.23-.4C122.64,72.51,118.69,73.14,118.66,72.68Z" transform="translate(-9 -9)"/>
  <path class="cls-1" d="M136.74,75.7c1.69,7.43,4.29,13.21,6.13,13,2.87-.26,4,5.74-1.83,5.87-2.83.06-4.35-1.78-4.11-2" transform="translate(-9 -9)"/>
  <path class="cls-3" d="M128.32,82.09c0,1.56-.87,2.83-1.95,2.83-.78,0-1.19-.18-1.5-1.14l.91-1.56L124.35,81a1.76,1.76,0,0,1,2-1.79C127.45,79.25,128.32,80.52,128.32,82.09Z" transform="translate(-9 -9)"/>
  <path class="cls-3" d="M150.24,81.44c0,1.56-.87,2.83-2,2.83-.78,0-1.2-.18-1.51-1.14l.92-1.56-1.44-1.18a1.77,1.77,0,0,1,2-1.79C149.37,78.6,150.24,79.87,150.24,81.44Z" transform="translate(-9 -9)"/>
  <path class="cls-4" d="M133.35,111.83c-.13-.26,6.21-1,6-.53-.13.27-.34,5.37-.52,5.74S133.76,112.65,133.35,111.83Z" transform="translate(-9 -9)"/>
  <path d="M135.55,101.64a10.2,10.2,0,0,0,7.43.44c1.42-.4,2.7-.77,2.76-1.34.15-1.54-7.4,1.41-11.45-1.95C131.84,96.76,133.85,101,135.55,101.64Z" transform="translate(-9 -9)"/>
  <path class="cls-4" d="M144.76,56.07c-8.78-1.73-21.33-6.59-31.5.06-4.91,5-7.16,8.5-7.09,11.75,0,1.8,2.26,2.92,2.26,5,0,1.82-1.56,2.47-2.08,1.43,0,0-.71-1.78-.78-1.83-3.82-2.2-6.72,1.57-7,3.85-1,8.78,3.45,15.08,4.43,15,5.59-.46,9.85,7.63,7.5,8.81C104.79,103,78,67.8,91.74,52.54a12.64,12.64,0,0,1,3.73-2.44c1-6.65,10.29-14,22.85-17.58,11.73-3.32,22.76-2.3,27.71,2,7.54,1.21,12.11-3,16.54-1C168.25,36.11,166.67,60.37,144.76,56.07Z" transform="translate(-9 -9)"/>
  <path class="cls-1" d="M140.13,114.57c3.91-.79,8.09,2.6,8.61,6.52.59,4.39-2.59,8.22-3.39,8.87" transform="translate(-9 -9)"/>
  <path class="cls-1" d="M137.78,130.22" transform="translate(-9 -9)"/>
  <path class="cls-1" d="M139.61,122.65" transform="translate(-9 -9)"/>
  <path class="cls-1" d="M170.65,138.3" transform="translate(-9 -9)"/>
  <path class="cls-1" d="M173.78,129.7" transform="translate(-9 -9)"/>
  <path class="cls-1" d="M120.57,128.65a13.13,13.13,0,0,0-3.92-8.61c-.46-.46-5.48-10.17-16.43-6.78-6.46,2-9.39,12.78-2.09,18" transform="translate(-9 -9)"/>
  <path class="cls-1" d="M90.83,142c5.65-8.08,4.56-12.43,13.82-11.74,7,.52,7.17,2.78,8.09,4.17" transform="translate(-9 -9)"/>
  <path class="cls-1" d="M137.78,127.87c5-.78,12,4.17,19.31,14.61" transform="translate(-9 -9)"/>
  <path class="cls-4" d="M704.52,225.3c2.41,11.76,2.55,40.7-.19,53.61-1,4.51-15.77.39-20.16.39-12.37,0-26-30.64-26-47.93s20.15-27.2,28.37-26C698.77,207.1,703,217.67,704.52,225.3Z" transform="translate(-9 -9)"/>
  <path class="cls-4" d="M647.78,241.19c0,10.43,16.2,39.57,4.31,41.56-9.59,1.61-8.85.45-22.11.53-6.73.05-13.22-1.29-12.33-4.1,4.31-13.55.53-25.36,1.18-37.44,1.95-36.39,13.69-33.72,22.69-34.44C650.35,206.6,647.78,226,647.78,241.19Z" transform="translate(-9 -9)"/>
  <path class="cls-5" d="M679.87,269.33c1.56,5.87,1.82,7.86,3.52,11.41,5.74,12-28.44,18.52-23.22,9.39a24.78,24.78,0,0,0,3.76-11.27l-.11.06c-1.71.85-12.77,6.37-21.91,1.56-17.46-9.19-21.67-52.82.78-69.65,10.22-7.66,27.26-10.74,36.79-3.13,4.59,3.66,7.7,9.18,9.23,15.62a44,44,0,0,1,.82,14.65c-.36,3.42,4.87.51,4.62,5.73-.78,16.63-8.76,11-9.39,12.52-.88,2.08-2.54,2.74-2.15,2.74" transform="translate(-9 -9)"/>
  <path class="cls-1" d="M644.54,241.22c-1.69,7.43-4.29,13.21-6.13,13-2.87-.26-4,5.74,1.83,5.87,2.83.06,4.35-1.78,4.11-2" transform="translate(-9 -9)"/>
  <path class="cls-2" d="M637.94,246.83c0,.35-.51.25-2.45.1a40,40,0,0,0-4.92-.1c-.69.09-7.08-2.05-.47-1.6a9.28,9.28,0,0,1,.09-1.16c.22-1.86.65-3,1.09-3,.28,0,.2.26.07,1.38a17.28,17.28,0,0,0-.1,2.78.26.26,0,0,1,0,.14l1.59.17C636.05,245.86,637.94,246.28,637.94,246.83Z" transform="translate(-9 -9)"/>
  <path class="cls-2" d="M661.4,248c0,.35-.51.25-2.45.1A40,40,0,0,0,654,248c-.69.09-7.08-2.05-.47-1.6a9.28,9.28,0,0,1,.09-1.16c.22-1.86.65-3,1.09-3,.28,0,.2.26.07,1.38a17.28,17.28,0,0,0-.1,2.78.26.26,0,0,1,0,.14l1.59.17C659.51,247.05,661.4,247.47,661.4,248Z" transform="translate(-9 -9)"/>
  <path class="cls-6" d="M647.63,268c-8.22-1.7-7.65-5.15-10.31-3.66-2.08,1.18-1.17,3.81.13,3.92C640.71,268.48,649.32,268.3,647.63,268Z" transform="translate(-9 -9)"/>
  <path class="cls-6" d="M647.63,268.22c-5.35,4.3-6.13,5.61-8.74,4.17-1.72-.95-1.13-1.8-.91-2.74C638.4,267.86,648.92,267.17,647.63,268.22Z" transform="translate(-9 -9)"/>
  <path class="cls-7" d="M656.31,232.5c-3.24.16-6.26,1-6,1.73s5.13,1.34,5.74,1.25c.83-.13,10.37,2.63,10.37,1.75C666.37,236.55,658.54,232.39,656.31,232.5Z" transform="translate(-9 -9)"/>
  <path class="cls-7" d="M632.85,231.14c3.24.16,6.27,1,6,1.73s-5.13,1.34-5.74,1.25c-.83-.13-6.9,1.07-6.9.18C626.26,233.63,630.62,231,632.85,231.14Z" transform="translate(-9 -9)"/>
  <path class="cls-4" d="M661.09,288.83c1.8-2.56,3.08-9.05,2.21-9.4-.65-.26,6.52-3.53,9.13-3.26C677.39,276.7,659.89,290.53,661.09,288.83Z" transform="translate(-9 -9)"/>
  <path class="cls-4" d="M680.85,238.81c-4.9-1.65-5.54-7.13-15.65-10.38l-.4-7.63-5.08,5.38c-.72-.13-7.51-1.87-8.22-2.05-9.89-2.45-17.47-1.44-19,1.57-10.2,20.35-13.7,2.22-8.22-9,8.42-17.22,13.66-23.48,35.81-23.48S689.26,213,692.59,225.7C695.14,235.47,691.2,242.29,680.85,238.81Z" transform="translate(-9 -9)"/>
  <path class="cls-4" d="M686.72,242c-1.74,1.35-4.76,5.64-7.37,8.77-1.57,1.88-2.78.48-1.83-3.13,2.21-8.43-3-21.49-1-19.57S703.61,228.83,686.72,242Z" transform="translate(-9 -9)"/>
  <path class="cls-5" d="M659,291.83c-.56-.5-4.3,2.74-2.22,5.08,5,5.57,26.62,1.81,32.35-8.21,1.3-2.29-3-6.39-5.35-3.79C675,294.43,665.13,297.3,659,291.83Z" transform="translate(-9 -9)"/>
  <path class="cls-4" d="M656.13,296.78c-.91-.39-35.75,26.61-32.61,26.61l81.78-.26c-.65-9.65-2.6-36.13-16.17-34.43C686.06,289.08,676.35,305.39,656.13,296.78Z" transform="translate(-9 -9)"/>
  <ellipse class="cls-7" cx="569.72" cy="369.89" rx="14.67" ry="19.37"/>
  <path class="cls-5" d="M648,423.43C646,437,648,438,650.91,444.83c4.53,10.7-38.49,25-35.74,14.08,1.05-4.17,2.09-9.39-1.56-15.13-16.45,9.57-20.15,5.15-40.29-5.54-23.94-12.71-12.55-31.3-5.1-48.9,8.08-19.12,14.35-25.72,16.56-26.15,21-4.05,44.82,2.28,59.14,15.3,9.26,8.43,10.11,19.32,6,29.93" transform="translate(-9 -9)"/>
  <path class="cls-3" d="M595.7,402.22c0,2.47,1.38,4.48,3.09,4.48,1.23,0,1.89-.28,2.38-1.8l-1.45-2.48,2.28-1.86c-.16-2.26-1.61-2.83-3.21-2.83S595.7,399.74,595.7,402.22Z" transform="translate(-9 -9)"/>
  <path class="cls-3" d="M567.4,400.85c0,2.47,1.38,4.48,3.08,4.48,1.24,0,1.9-.28,2.39-1.8l-1.45-2.48,2.27-1.85c-.16-2.27-1.61-2.84-3.21-2.84S567.4,398.37,567.4,400.85Z" transform="translate(-9 -9)"/>
  <path class="cls-1" d="M580,400.86c2.14-2.79,4.52-3.4,8.08.92" transform="translate(-9 -9)"/>
  <path class="cls-6" d="M588.24,429.63c2.74-.39,2.25.66,2.15.72-5.95,3.43-9.94,4.66-12.3,2.84-1.55-1.2-.84-2-.48-2.85a.77.77,0,0,1,.3-.33c-1.19-.26-2-.61-2.11-1.06-.19-.95-.75-1.82,1-2.71,2.65-1.34,5.33-1.3,10.52,3.19C587.46,429.54,588.36,429.55,588.24,429.63Z" transform="translate(-9 -9)"/>
  <path class="cls-4" d="M616.61,453.57c1-2.81-2.12-9.45-2.74-9.4-4.7.4,15.12-6.92,17.74-6.65C636.57,438,615.88,455.52,616.61,453.57Z" transform="translate(-9 -9)"/>
  <path class="cls-1" d="M630.57,400.61c1.95-2.54,4.7-2.15,7,0,5.08,4.66.73,17.85-4.31,18.78-1.79.33-3.55-.92-4.69-2" transform="translate(-9 -9)"/>
  <path class="cls-1" d="M584.39,403.67c0,6.4-3.29,6.41-6.52,6.92-2.27.36-4.14,2-3.91,3.13,1,4.89,4.37,4.72,5.28,4.69,3.12-.08,4.8-.46,7.24-3" transform="translate(-9 -9)"/>
  <path class="cls-1" d="M596.54,411.41c-7.21-2.31-10.71-12-8.09-16.26,4-6.35,23.72-3.12,25.29,3.18C615,403.34,605.74,414.36,596.54,411.41Z" transform="translate(-9 -9)"/>
  <path class="cls-1" d="M564.21,411.59c-7.41-1.6-11.83-10.95-9.63-15.4,3.32-6.71,23.29-5.41,25.47.7C581.78,401.75,573.65,413.63,564.21,411.59Z" transform="translate(-9 -9)"/>
  <path class="cls-7" d="M574.83,380.41c3.16.72,6,2.07,5.65,2.77s-5.29.41-5.87.21c-.8-.27-10.67.75-10.52-.11C564.22,382.62,572.65,379.91,574.83,380.41Z" transform="translate(-9 -9)"/>
  <path class="cls-7" d="M601.92,382.37c-3.24.16-6.27,1-6,1.73s5.13,1.34,5.74,1.25c.83-.13,10.37,2.63,10.37,1.75C612,386.42,604.15,382.26,601.92,382.37Z" transform="translate(-9 -9)"/>
  <path class="cls-7" d="M668.92,369.45c8.38,3.75,13.67,19.38,4.59,30.45-14.38,17.53-13.6,12.06-27.29,20.67-7.78,4.88-8.91-21.19-3.07-34.26S660.53,365.7,668.92,369.45Z" transform="translate(-9 -9)"/>
  <path class="cls-7" d="M668.36,366.87c-1.83,11.3-2.66,29.75-26.45,25.91-8.59-1.38-12.52-20.74-34-22.69-29.53-2.69-44.09-15-37.57-23.48,7-9.09,34.5-11,58.29-7.17S670.18,355.56,668.36,366.87Z" transform="translate(-9 -9)"/>
  <path class="cls-7" d="M646.61,395.91c-6.26,19.18-5.87-7-21.52,10.18-1.82,2-6.06,3.59-5.33-3.31s2.83-9.49.63-13.52c-2.35-4.3,6-21.4,11-19.17S649.46,387.18,646.61,395.91Z" transform="translate(-9 -9)"/>
  <circle class="cls-7" cx="623.91" cy="406.67" r="0.59"/>
  <path class="cls-4" d="M615,460.58c-.1-.43-24.78,9.1-23.44,15,0,0,58.56,2.09,68.47-1.83,1-.41,20.48-6.65,25.31-12.78,3.43-4.37-30.33-19.79-34.31-13.7s-10.91,13.8-22.69,14.87C620.72,462.87,615.53,462.82,615,460.58Z" transform="translate(-9 -9)"/>
  <path class="cls-4" d="M592.61,297.11c-2.35-6.46-42.59.65-47.15,3.72-6,4,7.63,5.47,7.63,5.47.39.72,26.61,1.24,34.82,1.11C593.87,307.32,595,303.54,592.61,297.11Z" transform="translate(-9 -9)"/>
  <path class="cls-4" d="M524.65,304c4.55-2.28,23.54-4.43,23-3.53-9.07,14.06-9.69,23-10.66,23-11.48,0-9.82.1-9.82.1S521.52,305.52,524.65,304Z" transform="translate(-9 -9)"/>
  <ellipse class="cls-4" cx="578.91" cy="211.02" rx="12.91" ry="25.24"/>
  <path class="cls-4" d="M562.48,258.92c-21.52,10.6-39.85,11.71-38.35-7.79,2.35-30.52-3.91-37.21.78-44.61,6.32-9.94,26.12-5.44,36.6,11.07S573,253.72,562.48,258.92Z" transform="translate(-9 -9)"/>
  <path class="cls-5" d="M578.91,284.39c-.26,2.35-.13,3.76,1.31,13.31s-35.76,13.7-33.92,4.17c1.06-5.46,1.17-8.66.65-12.49a38.87,38.87,0,0,1-20.35-6.49,34.53,34.53,0,0,1-9.66-10.54c-11.28-17.77,7.91-68.53,18.45-71.16,12.2-3.05,24.55-4.19,37.78-.88,7.11,1.78,14.13,16.66,17,33.21.29,1.69.53,3.39.73,5.09.44,3.76,6.28-2.71,7.36,5.09,2.21,16-5.22,16.82-8.81,16.37a26.45,26.45,0,0,0-.84,3.71c-.92,3.92-2.75,9.32-5.94,12.39" transform="translate(-9 -9)"/>
  <path class="cls-2" d="M565.74,244.54c0-.69-3-4.28-7.17-3.84-3.72.39-6.26,3.29-6.14,3.71.2.67,4.33-2.39,6.59-2.21C561.5,242.39,565.73,245,565.74,244.54Z" transform="translate(-9 -9)"/>
  <path class="cls-2" d="M530.91,244.15c0-.69-3-4.28-7.17-3.85-3.72.4-6.26,3.3-6.13,3.72.19.66,4.32-2.39,6.59-2.22C526.67,242,530.9,244.61,530.91,244.15Z" transform="translate(-9 -9)"/>
  <path d="M544.28,273.43c-1.75.82-5.39,1.91-8.41-.19-1.21-.84-3.56-3.74-3.39-4.5.45-2,4.69.91,10.56-.26C546.76,267.74,546.15,272.57,544.28,273.43Z" transform="translate(-9 -9)"/>
  <path class="cls-7" d="M557.5,222.4c5.27-.92,10.9,2.73,10.87,4.62,0,2.25-8.12,2.4-9.14,2.42-1.38,0-8.28.16-8.63-2C550.32,225.86,553.88,223,557.5,222.4Z" transform="translate(-9 -9)"/>
  <path class="cls-7" d="M522.29,223.58c5.27-.93,10.89,2.72,10.86,4.61,0,2.25-8.12,2.41-9.14,2.43-1.38,0-8.27.15-8.63-2C515.11,227,518.66,224.21,522.29,223.58Z" transform="translate(-9 -9)"/>
  <path class="cls-1" d="M540.76,244.53c.07,5.43-9,5.73-6.3,10.24,1.44,2.4,7.35.82,7.67.72" transform="translate(-9 -9)"/>
  <path class="cls-4" d="M514.74,268.74c-.39,8.61,3.13,22.83,16,25.43,35.38,7.15,41.61-.13,52.57-18A94.18,94.18,0,0,0,588,265.09c.82-2.81-14.34,5.21-32.32-4-5.25-2.69-12.7-2.2-18.29-2.27-5-.07-11.5,2.85-15.13,4.17C519.43,264,514.94,264.28,514.74,268.74Zm25,14.87c-4.56-.18-14.28-2.74-14.35-14.35,0-8.67,27.42-7.49,27.14-2.35C551.52,286,544.67,283.8,539.78,283.61Z" transform="translate(-9 -9)"/>
  <path class="cls-4" d="M581.26,237.43c-1-8.43-2.82-14.09,7.44-10.17,1.39.53,8,11,1.36,13.3-4.49,1.57,0,25.4-4.1,27C569.13,274.22,583.61,256.22,581.26,237.43Z" transform="translate(-9 -9)"/>
  <path class="cls-4" d="M589.87,235.09c-7.35,0-18-9.28-18-18.79a23.9,23.9,0,0,1,1.42-8.49c-12.06-7.53-49,6.78-58.55-13-18.34-38.14,36.78-23.08,54-18.39,14.8,4,23.87,10.58,23.87,19.76a22.59,22.59,0,0,1-1.16,7,19.22,19.22,0,0,1,5.46,13.92C596.91,226.6,597.22,235.09,589.87,235.09Z" transform="translate(-9 -9)"/>
  <path class="cls-4" d="M593,300.3c-1.83-6.91-23.09.59-27.65,3.66-6,4,2.22,18.58,2.22,18.58.39.72,26.6,1.24,34.82,1.11C608.34,323.56,594.75,306.92,593,300.3Z" transform="translate(-9 -9)"/>
  <path class="cls-8" d="M540.66,311.29c5.77,2.45,13.11,3.72,27.49,3.43" transform="translate(-9 -9)"/>
  <path class="cls-8" d="M539.2,318c6.45,1.76,15,3.32,28.37,4.59" transform="translate(-9 -9)"/>
  <path class="cls-4" d="M45,260.64l.2.4-.16,0A2.28,2.28,0,0,0,45,260.64Z" transform="translate(-9 -9)"/>
  <path class="cls-4" d="M52.41,250.67s0,.05,0,.07a1.82,1.82,0,0,1,0-.3Z" transform="translate(-9 -9)"/>
  <path class="cls-4" d="M80.54,218.15l.14.21h-.15A1.62,1.62,0,0,0,80.54,218.15Z" transform="translate(-9 -9)"/>
  <path class="cls-4" d="M95.1,198.88c-.45-.12-.91-.22-1.36-.3a9.91,9.91,0,0,0,.62-1.37A10.65,10.65,0,0,1,95.1,198.88Z" transform="translate(-9 -9)"/>
  <path class="cls-1" d="M50.26,260.46c-2.75,1.85-3.91-.13-5.35-1.7s-5.48-8.09-3.52-13.83c1.4-4.1,4-2.69,5.87-4.43.86-.8.8-2.55.85-2.95,1.92-16.1,10.57-27.49,25.5-27.05C91.1,211,99.25,226.34,101.78,247c1.57,12.78,2.16,34.34-9.11,42A17.17,17.17,0,0,1,83,291.89,21.91,21.91,0,0,1,70.47,288a3.37,3.37,0,0,1,.79,1.58c.26,4.43.78,5.74.78,7.82,0,5.49-14.86,4.44-18.52-.78-2-2.92-.78-2.61.26-13.56.47-4.89.39-11.62-.78-15.73" transform="translate(-9 -9)"/>
  <path class="cls-4" d="M71.78,298.22c-.19-2.74,0-8.81-1.17-10-1.81-1.8-8.53-4.75-7-2.74C66.89,290,71.93,300.29,71.78,298.22Z" transform="translate(-9 -9)"/>
  <path class="cls-5" d="M68.65,302.13c-4.66,1.11-14.79-11.07-18.52-6.78-4.25,4.89-10.7,4.43-7.3,10.95.55,1.07-15.45,17.27-12,17.22,20.08-.26,58.17-.52,71-.26,1.91,0-18.32-14.29-18-14.87,3.65-6.52-8.61-9.54-9.91-10.17C72.11,297.37,75,300.62,68.65,302.13Z" transform="translate(-9 -9)"/>
  <path class="cls-1" d="M90.83,248.33c2.74,6.13,2.85,6.82,4.69,6.65,2.87-.26,2.74,7-1.82,6.26-2.8-.48-4.36-2.17-4.11-2.35" transform="translate(-9 -9)"/>
  <path class="cls-3" d="M82.74,249.76c0,1.56-.87,2.83-1.95,2.83-.78,0-1.2-.17-1.51-1.13l.92-1.57-1.44-1.17a1.77,1.77,0,0,1,2-1.8C81.87,246.92,82.74,248.19,82.74,249.76Z" transform="translate(-9 -9)"/>
  <path class="cls-3" d="M100.74,247.93c0,1.56-.87,2.83-1.95,2.83-.78,0-1.19-.17-1.5-1.13l.91-1.57-1.44-1.17a1.77,1.77,0,0,1,2-1.8C99.87,245.09,100.74,246.36,100.74,247.93Z" transform="translate(-9 -9)"/>
  <path class="cls-6" d="M85.48,271.8c8.22-1.69,7.64-5.14,10.3-3.65,2.09,1.18,1.18,3.81-.13,3.92C92.39,272.33,83.79,272.15,85.48,271.8Z" transform="translate(-9 -9)"/>
  <path class="cls-6" d="M85.48,272.07c5.35,4.3,6.13,5.6,8.74,4.17,1.72-.95,1.13-1.8.91-2.74C94.71,271.7,84.18,271,85.48,272.07Z" transform="translate(-9 -9)"/>
  <path class="cls-7" d="M79.61,239.72c-3.24-.15-6.41,1.58-6.26,2.35s5.06.62,5.67.58c.84-.05,5-.29,5.09-1.17C84.17,240.81,81.84,239.82,79.61,239.72Z" transform="translate(-9 -9)"/>
  <path class="cls-7" d="M99,239.05c-3.24.16-6.23,2.18-6,2.93s5.09.14,5.7.05c.83-.13,5-.76,5-1.64C103.67,239.72,101.26,239,99,239.05Z" transform="translate(-9 -9)"/>
  <path class="cls-4" d="M65.52,283.93" transform="translate(-9 -9)"/>
  <path class="cls-4" d="M105.55,201.9c6.23-6.23,7.78-14.77,3.46-19.09-3.08-3.08-8.29-3.17-13.29-.73-.72-7.72-7.54-13.78-15.85-13.78a15.76,15.76,0,0,0-15.54,11.86,18.1,18.1,0,0,0-3.41-.31c-6.83,0-12.65,3.58-14.92,8.62a18.71,18.71,0,0,0-3.86-.4c-8.81,0-15.94,6-15.94,13.3a2.17,2.17,0,0,0,0,.26c-3.93,2.42-6.47,6.31-6.47,10.7a11.36,11.36,0,0,0,1.46,5.56l.41-.32c0,.27-.09.53-.13.8a5.5,5.5,0,0,1-.28-.48,14.49,14.49,0,0,0-2.92,3.2c-3.27,4.87-3.14,10.84,0,14.39-3.17,5.46-2.28,12,2.17,15A9,9,0,0,0,25.51,252a10.05,10.05,0,0,0,.65,5.4c1.84,4.58,6.44,7,10.25,5.49a5,5,0,0,0,.73-.36,5.3,5.3,0,0,0,.55.93,3.3,3.3,0,0,0-.15,1c0,2.49,2.59,4.5,5.78,4.5a6.42,6.42,0,0,0,4.49-1.69c1.63,1.95,3,4,4.41,4,2,0,.39-4.18.39-6.45s-1.37-5.68-3.62-4.11c-.35.25-.81.52-1.28.8a6.16,6.16,0,0,0-3-1.46c-.34-.7-.83-1.71-1.36-2.82h0c-1.65-3.42-3.73-7.84-3.23-7.34s.32-7.64,1-7.82c2.56-.75,9.47-3.88,11.21,7.65-.25-2-.76-6.28-1.15-10.14a7.34,7.34,0,0,0,6,.14c3.73-1.68,5.27-6.65,4-11.91,6.72,2.83,14.13,1.29,17.61-4.05a11.43,11.43,0,0,0,1.81-5.39,1.62,1.62,0,0,0,0-.22l.14.21A18.66,18.66,0,0,0,86,223.61c7.38,4.8,16.62,3.7,20.63-2.45,3.4-5.24,1.93-12.46-3.13-17.45A22.8,22.8,0,0,0,105.55,201.9Zm-11.81-3.32a9.91,9.91,0,0,0,.62-1.37,10.65,10.65,0,0,1,.74,1.67C94.65,198.76,94.19,198.66,93.74,198.58Z" transform="translate(-9 -9)"/>
  <path class="cls-4" d="M95.1,198.88c-.45-.12-.91-.22-1.36-.3a9.91,9.91,0,0,0,.62-1.37A10.65,10.65,0,0,1,95.1,198.88Z" transform="translate(-9 -9)"/>
  <path class="cls-4" d="M21.61,217.57c0,.27-.09.53-.13.8a5.5,5.5,0,0,1-.28-.48Z" transform="translate(-9 -9)"/>
  <path class="cls-4" d="M21.61,217.57c0,.27-.09.53-.13.8a5.5,5.5,0,0,1-.28-.48Z" transform="translate(-9 -9)"/>
  <path class="cls-4" d="M45,260.64l-1.64-3.4a5.58,5.58,0,0,1,1.26,1.91A5.45,5.45,0,0,1,45,260.64Z" transform="translate(-9 -9)"/>
  <ellipse class="cls-7" cx="38.13" cy="247.93" rx="0.65" ry="0.79"/>
  <line class="cls-5" x1="39.57" y1="297.04" x2="44.26" y2="301.74"/>
  <line class="cls-5" x1="63.67" y1="302.97" x2="65.54" y2="308.86"/>
  <line class="cls-5" x1="77.65" y1="307.22" x2="78.96" y2="310.61"/>
  <line class="cls-5" x1="36.7" y1="308" x2="43.74" y2="309.57"/>
  <line class="cls-5" x1="51.96" y1="307.06" x2="56.13" y2="304.76"/>
  <path class="cls-1" d="M271.35,280.87c-1.57,1.56-6.46,2.74-13,3.68" transform="translate(-9 -9)"/>
  <path class="cls-4" d="M230.07,295.54c-4.74-6.72-52.51,28.1-44.42,27.79,30.52-1.18,86.68-.59,109.18,0,8.77.23-29.72-33.17-36.79-27.4C244.15,307.28,237.5,306.11,230.07,295.54Z" transform="translate(-9 -9)"/>
  <path class="cls-1" d="M258.33,284.55l-1.72.22A78.52,78.52,0,0,1,258,294c.53,2.8-12.32,9.38-16.82,9.13-4.7-.26-11.35-5.47-10.57-9.65a52.73,52.73,0,0,0,.73-9.53c-15.61-2.8-29.12-9.88-32.81-20.73-5-14.76,7.42-41.84,26.08-51.13,1.15-.57,27-12.91,49,3.13a46.16,46.16,0,0,1,16.47,23.81c.17.53,1.26-.33,3.61-.59.54-.06,3.16-.27,4.7,1,3,2.51,2.38,10.2.52,13.31-2.06,3.44-6.59,1.43-6.91,4.33A26.88,26.88,0,0,1,288.3,269" transform="translate(-9 -9)"/>
  <path class="cls-3" d="M216.42,246.24c0,1.84-1,3.33-2.27,3.33s-2.28-1.49-2.28-3.33,1-3.33,2.28-3.33S216.42,244.4,216.42,246.24Z" transform="translate(-9 -9)"/>
  <path class="cls-3" d="M247.73,246.76c0,1.84-1,3.33-2.28,3.33s-2.28-1.49-2.28-3.33,1-3.33,2.28-3.33S247.73,244.92,247.73,246.76Z" transform="translate(-9 -9)"/>
  <path class="cls-1" d="M228.47,243.16c.66,4.37-2,6.75-3.56,8.1-2.57,2.18-5.88,2.23-6.78,5a5.08,5.08,0,0,0,1,4.69c2.05,2.34,6.85,2.52,11.22-.52" transform="translate(-9 -9)"/>
  <path class="cls-1" d="M208.48,236.91c1.82-3.13,12-9.13,16.69.52" transform="translate(-9 -9)"/>
  <path class="cls-4" d="M231.51,270.77c-.14,1.26,6.22,4.54,10.62,3.45,2.76-.69,3.85-3.61,3.5-4.68C245,267.46,231.73,268.7,231.51,270.77Z" transform="translate(-9 -9)"/>
  <path class="cls-4" d="M231.14,283.9c-.78-.1,5,8.32,8.51,8.32,1.81,0,10-6.84,6.95-7.05C243.76,285,237.67,284.72,231.14,283.9Z" transform="translate(-9 -9)"/>
  <path class="cls-1" d="M295.61,253c-.33,3.08-.34,4.69.91,4.82s1.56-3.3,1.7-3.52" transform="translate(-9 -9)"/>
  <ellipse class="cls-7" cx="287.68" cy="233.72" rx="0.88" ry="0.68"/>
  <ellipse class="cls-7" cx="288.21" cy="238.48" rx="0.88" ry="0.68"/>
  <path class="cls-4" d="M238,195.43c-1.22.15-7.2,7.58-6.39,14,.26,2.13,4.45,4.75,5.6,6.13,4.24,5.09,13.31-5.74,23.74-5.48,7.7.2-1.91-14.42-3.39-14.61s-3.12,6.22-5.22,6-2.56-8.29-4.17-8.34-2.19,6.85-4.7,7C241.13,200.3,239.63,195.24,238,195.43Z" transform="translate(-9 -9)"/>
  <path class="cls-1" d="M95.65,454.61c-7.06,4.18-19.06,20.86-12.52,20.93,16.83.2,69.26-.39,84.52.39,8.63.45-17.31-26.9-25.63-24.06C133.41,454.8,101.48,451.16,95.65,454.61Z" transform="translate(-9 -9)"/>
  <polygon class="cls-4" points="112.4 444.98 130.2 445.77 125.59 456.96 112.4 444.98"/>
  <path class="cls-1" d="M101.13,415.48c.13,1-2.27,1.86-5.28-.39-1.57-1.18-4.92-7.56-4.5-14.48.39-6.46,7-3.94,7.59-6.22,2.85-10.73,11.24-20.09,20.92-22.24,32.11-7.16,57,30,50.33,49-3.95,11.16-21.82,17.53-37.52,15.33,0,1.05-.58,3.61.55,6.21,2.27,5.27-29.61,4.24-28.57-3.32.92-6.64-.62-15.07-.52-14.48" transform="translate(-9 -9)"/>
  <path class="cls-1" d="M148.74,396.3c5.74,1.83,8.22,7.05,11.22,12.57,1.9,3.49,2.69,5.79-3.63,5.05-3.87-.46-7.46.91-6.94-2.88" transform="translate(-9 -9)"/>
  <path class="cls-3" d="M140.39,401.26c0,1.56-.87,2.83-1.95,2.83-.78,0-1.19-.18-1.5-1.14l.91-1.56-1.43-1.18a1.76,1.76,0,0,1,2-1.79C139.52,398.42,140.39,399.69,140.39,401.26Z" transform="translate(-9 -9)"/>
  <path class="cls-3" d="M163.35,399.31c0,1.56-.87,2.83-1.95,2.83-.78,0-1.2-.18-1.51-1.14l.91-1.57-1.43-1.17a1.77,1.77,0,0,1,2-1.79C162.48,396.47,163.35,397.74,163.35,399.31Z" transform="translate(-9 -9)"/>
  <path class="cls-7" d="M135.43,392.91c-3.24-.14-6.4,1.58-6.26,2.35s5.06.62,5.68.59c.84-.05,5-.3,5.08-1.18C140,394,137.67,393,135.43,392.91Z" transform="translate(-9 -9)"/>
  <path class="cls-7" d="M163.35,390.3c-3.25-.14-6.41,1.59-6.26,2.35.17.92,5.06.63,5.67.59.84-.05,5-.3,5.09-1.17C167.91,391.4,165.58,390.41,163.35,390.3Z" transform="translate(-9 -9)"/>
  <path class="cls-4" d="M157.87,423.43c1.25-.16-1.08,4-5.48,2.87-2.75-.68-4.48-2.31-3.39-2.6C151.87,422.91,154,424,157.87,423.43Z" transform="translate(-9 -9)"/>
  <path class="cls-4" d="M132.43,444.24c-.19-2.74.2-7.14-.19-7.63s-8-.88-10.57-1.57C116.27,433.59,132.58,446.32,132.43,444.24Z" transform="translate(-9 -9)"/>
  <path class="cls-4" d="M100.15,394.74c3.57.75-1.56,11.54,4.3,13.73,1.94.72,4.89.75,5.68-1,1.58-3.55-3-2.82-2.22-9.55.67-5.7,15.15-11.34,14.55-14.52s-18.59-15.65-24.46.78C95.22,392,95.48,393.75,100.15,394.74Z" transform="translate(-9 -9)"/>
  <path class="cls-1" d="M123.43,371.26a7.37,7.37,0,0,0-2.93-8.61" transform="translate(-9 -9)"/>
  <path class="cls-1" d="M123,371.08a7.37,7.37,0,0,0-7.11-5.68" transform="translate(-9 -9)"/>
  <path class="cls-1" d="M124.8,371.07c.7-4.14,3.4-5.13,9.4-5.48" transform="translate(-9 -9)"/>
  <path class="cls-5" d="M101.91,439.93c-2.51,3.36-7,12.53-5.87,12.92,1.35.45,30.87,13.3,34.05,5.48,2.54-6.26,1.71-8,1.56-11.35C131.46,442.48,102.5,439.15,101.91,439.93Z" transform="translate(-9 -9)"/>
  <path class="cls-5" d="M135,442.28c2.51,3.36,7.69,8.54,7,9.59-1.56,2.54-4.64,11-7.82,3.13-2.55-6.26-3.48-5.87-3.33-9.2C131.07,441.3,134.39,441.5,135,442.28Z" transform="translate(-9 -9)"/>
  <path class="cls-4" d="M133,463.89c-3.07,1.9-6.61,12-5.6,11.85,3-.53,19.58.38,20.93-.39s-11.66-11.46-11.84-12.16C136.37,462.89,134.51,462.92,133,463.89Z" transform="translate(-9 -9)"/>
  <path class="cls-5" d="M325.87,450.83c-1.07,2.7.52,10.92,2.24,17.36,1.25,4.71,1.27,6.39,1.67,6.38,9.39-.25,25.93-3.8,28.44-10.44,1.71-4.53,4.65-9.33,1-12.26C352.51,446.36,328.52,444.14,325.87,450.83Z" transform="translate(-9 -9)"/>
  <path class="cls-5" d="M377,445.22a21.48,21.48,0,0,1-6.29.94c.49,2.35,1.59,11.3,1.79,11.77,2.74,6.46-32.48,9.52-29.93,1.5.76-2.41,3-9.53,2.6-13.56a35.27,35.27,0,0,1-9.91-4.17c-12.1-6.66-17.42-29-12-46.44,5.08-16.38,21.42-24.36,34.44-25.56,14.23-1.32,29.52,3.73,37.32,18.54a31.39,31.39,0,0,1,1.93,4.42,33.51,33.51,0,0,1,1.82,9.45c.4,7.76,6.88.68,5.62,12.46-1.17,10.95-7,7.38-8,9.78-4,9.78-5.86,9.26-7.43,11.61" transform="translate(-9 -9)"/>
  <path class="cls-4" d="M405.17,396.3c-4.95,20.09-7.56-1.3-14.87,22.18C388,426,387.17,406,379.35,402.83c-2.32-.93-1.51-6.91,3.65-17.22.52-1-13.2-8.09-23.74-8.09-11.75,0-18.45,1.49-23.65,0-3.45,4.52-11.33,4.69-17.91.29-6.76-4.53-9.58-12.18-6.3-17.08,1.66-2.49,4.58-3.8,7.93-3.89-7-16.1.08-22,23.24-17.4a88.08,88.08,0,0,1,9.24,2.45c.36-2.4,1.29-4.22,3-5.05,6.63-3.17,36.26,10.43,39.39,25.56.54,2.61,1.13,4.27.37,5.78a4.75,4.75,0,0,1,2.37-.3C414.3,372.57,408.06,384.62,405.17,396.3Z" transform="translate(-9 -9)"/>
  <path class="cls-2" d="M342.44,401.92c.06-1.09-3.55-3-6.59-3.43-2.74-.4-6.52,1.31-6.47,2,.09,1.1,2.69.66,5,.66C336.46,401.16,342.4,402.63,342.44,401.92Z" transform="translate(-9 -9)"/>
  <path class="cls-2" d="M359.39,428.39c-.2.61-8.79-.48-8.45-.64a6.22,6.22,0,0,0,.65.14,1.44,1.44,0,0,0-.29-.09.69.69,0,0,0-.36-.05c-.78-.18-2.11-.52-3.41-.91a33.64,33.64,0,0,0-4,.94c-2.2.83-5.84.83-6.31-.17-.3-.63,4-2.25,6.71-2.84l.12,0h0a9.47,9.47,0,0,1,6.44.06C353.32,426,359.74,427.36,359.39,428.39Z" transform="translate(-9 -9)"/>
  <path class="cls-2" d="M367.26,401.19c-.08-1.09-3.9-2.52-7-2.58-2.77-.05-6.31,2.13-6.16,2.82.23,1.07,4.87-.67,7.12-.28C363.26,401.5,367.31,401.89,367.26,401.19Z" transform="translate(-9 -9)"/>
  <path class="cls-1" d="M349.09,415.61c-2.43.8-5.46,3.68-4.7,5.09.61,1.11,4.5,1.34,6.26.78" transform="translate(-9 -9)"/>
  <path class="cls-4" d="M343.28,457.67c1-2.55.87-4.9,2.22-11.67.07-.33,7,1.73,12.42,1.47C364.09,447.17,342.51,459.61,343.28,457.67Z" transform="translate(-9 -9)"/>
  <path class="cls-4" d="M361.4,422.07h0a8.86,8.86,0,0,1-8.86-8.87v-5.07a1.61,1.61,0,0,1,1.62-1.62l14,.43a1.62,1.62,0,0,1,1.62,1.62v3.78C369.83,418,367,422.07,361.4,422.07Z" transform="translate(-9 -9)"/>
  <path class="cls-4" d="M335.51,421.35h0a8.86,8.86,0,0,1-8.86-8.86v-5.08a1.62,1.62,0,0,1,1.62-1.62l14.05.43a1.62,1.62,0,0,1,1.62,1.62v3.78C343.94,417.23,341.12,421.35,335.51,421.35Z" transform="translate(-9 -9)"/>
  <path class="cls-1" d="M343.84,413.52c1.44-3.84,7.32-3.3,8.51.3" transform="translate(-9 -9)"/>
  <polygon class="cls-4" points="396.65 416.59 389.79 418.32 391.72 411.52 396.65 416.59"/>
  <path class="cls-5" d="M349.61,453.45a18,18,0,0,0-7,6c-.64.77-4.37,6-5.48,7.05-5.71,5.36-12.9,9-6.79,8.87,8.87-.26,34.44.26,54.79,0,2.4,0-7-5.38-6.77-6.06,1.71-4.53,8.55-13.71,4.95-16.64C376.51,447.14,356.21,450.6,349.61,453.45Z" transform="translate(-9 -9)"/>
  <path class="cls-1" d="M390,283.09c-9.22-8.16-32.89,40.15-27.65,40.17,20.28.09,80.35,0,101.74,0,10.51,0-33.2-41.31-39.32-36.13C416.65,294,403.61,295.09,390,283.09Z" transform="translate(-9 -9)"/>
  <polygon class="cls-4" points="389.72 313.94 372.7 313.94 360.17 294.5 366.44 283.48 389.72 313.94"/>
  <polygon class="cls-4" points="440.52 312.7 428 313.74 422.78 279.83 435.83 289.22 440.52 312.7"/>
  <path class="cls-4" d="M445.48,132.17c-7-7.13-39.94,8.87-49.44,21.92-6.15,8.45-5.59,39.68,2.09,53.61,2.09,3.78-4.43,5.21-6.52,4.69-.86-.21-4.82-19.69-10.18-17.48C364.74,201.83,364,166,363.43,149c-.26-8.6-3.47-23.41.3-30.72a15.72,15.72,0,0,1-.43-3.71c0-5.84,3-10.57,6.66-10.57a4.36,4.36,0,0,1,1.64.32c.5-5.06,3.25-8.93,6.57-8.93a4.83,4.83,0,0,1,3.15,1.25c.23-5.51,3.11-9.86,6.64-9.86,2.07,0,3.92,1.5,5.14,3.87.13.25.25.52.37.79,0-.38.07-.75.13-1.12.66-4.71,3.32-8.23,6.49-8.23a5.46,5.46,0,0,1,4.3,2.51,9.86,9.86,0,0,1,1,1.74,13.22,13.22,0,0,1,.64-2.46c1.14-3.17,3.3-5.31,5.77-5.31a5.2,5.2,0,0,1,3.84,1.93c.68-.2,1.37-.39,2.06-.57,1.2-2.72,3.19-4.5,5.44-4.5a5.46,5.46,0,0,1,4.26,2.43l.23.33c0-.13.1-.26.15-.39C429,75,431,73.09,433.35,73.09c2,0,3.74,1.36,4.95,3.52.09.14.16.29.24.44a3.88,3.88,0,0,1,.22-.46c1.21-2.37,3.07-3.89,5.15-3.89,1.86,0,3.54,1.21,4.75,3.16a4.32,4.32,0,0,0-.51.45c.25,0,.51,0,.77,0a4.83,4.83,0,0,0-.26-.45c2.27-2,4.84-2.7,6.88-1.72A4.91,4.91,0,0,1,458,77C464.58,83.34,463.09,150.17,445.48,132.17Z" transform="translate(-9 -9)"/>
  <path class="cls-4" d="M393.1,90.65l.5-.33c-.06.37-.1.74-.13,1.12C393.35,91.17,393.23,90.9,393.1,90.65Z" transform="translate(-9 -9)"/>
  <path class="cls-4" d="M404.39,84.6c.55-.25,1.1-.49,1.67-.72a13.22,13.22,0,0,0-.64,2.46A9.86,9.86,0,0,0,404.39,84.6Z" transform="translate(-9 -9)"/>
  <path class="cls-4" d="M427.43,77.86l.38-.06c-.05.13-.11.26-.15.39Z" transform="translate(-9 -9)"/>
  <path class="cls-4" d="M438.76,76.59a3.88,3.88,0,0,0-.22.46c-.08-.15-.15-.3-.24-.44Z" transform="translate(-9 -9)"/>
  <path class="cls-4" d="M448.92,76.31c-.26,0-.52,0-.77,0a4.32,4.32,0,0,1,.51-.45A4.83,4.83,0,0,1,448.92,76.31Z" transform="translate(-9 -9)"/>
  <path class="cls-4" d="M448.92,76.31c-.26,0-.52,0-.77,0a4.32,4.32,0,0,1,.51-.45A4.83,4.83,0,0,1,448.92,76.31Z" transform="translate(-9 -9)"/>
  <path class="cls-5" d="M417.5,322.54c-8.68-19.08-11.88-27.37-8.28-30.06,1.89-1.42,3-1.83,8.67-1.05" transform="translate(-9 -9)"/>
  <line class="cls-5" x1="402.43" y1="286.54" x2="405.57" y2="287.33"/>
  <line class="cls-5" x1="410.07" y1="308.07" x2="413" y2="308.46"/>
  <path class="cls-1" d="M376.56,217.69c-.47,4.33-.48,3.9,1.28,4.09s2.19-4.64,2.38-4.95" transform="translate(-9 -9)"/>
  <path class="cls-1" d="M389.26,248.78c2.95,24.56,1.26,19.8-.16,30.18-1.61,11.8,31.73,18.11,35.71,8.17.74-1.86-.94-8.81-1.52-18.14a26,26,0,0,0,14.09,1.58c23.62-4.49,32.92-48,31.31-76.18-1.35-23.61-11.55-64.36-30.78-63.65C406.22,131.91,386.67,157,383,187.83q-.42,3.49-.57,7.07c-.16,4.08-10.91-2-7.49,17.1,1.83,10.17,8.84,3.74,9.78,8" transform="translate(-9 -9)"/>
  <path class="cls-4" d="M424,280.67c-1-2.55-.2-5.87-.39-11.34,0-.34-4.5-1.18-8.22-3.33C410,262.91,424.73,282.61,424,280.67Z" transform="translate(-9 -9)"/>
  <path d="M438.12,241.9a16.79,16.79,0,0,0,12.22.72c2.32-.66,4.44-1.26,4.53-2.2.25-2.54-12.17,2.31-18.83-3.2C432,233.88,435.33,240.82,438.12,241.9Z" transform="translate(-9 -9)"/>
  <path class="cls-3" d="M438,205.4c0,2.47-1.38,4.48-3.09,4.48-1.23,0-1.89-.28-2.38-1.8L434,205.6l-2.27-1.86c.15-2.27,1.6-2.84,3.2-2.84S438,202.91,438,205.4Z" transform="translate(-9 -9)"/>
  <path class="cls-3" d="M465.43,205.4c0,2.47-1.38,4.48-3.09,4.48-1.23,0-1.89-.28-2.38-1.8l1.45-2.48-2.27-1.86c.16-2.27,1.6-2.84,3.2-2.84S465.43,202.91,465.43,205.4Z" transform="translate(-9 -9)"/>
  <path class="cls-7" d="M462.42,180.92c5.27-.92,10.89,2.73,10.86,4.62,0,2.25-8.12,2.4-9.14,2.42-1.38,0-8.27.16-8.63-2C455.24,184.38,458.79,181.56,462.42,180.92Z" transform="translate(-9 -9)"/>
  <path class="cls-7" d="M429.55,181.58c5.27-.93,10.9,2.72,10.86,4.61,0,2.25-8.12,2.41-9.14,2.43-1.38,0-8.27.15-8.63-2C422.37,185,425.92,182.21,429.55,181.58Z" transform="translate(-9 -9)"/>
  <path class="cls-1" d="M448.93,212.2c6.07,3.13,9.8,6.24,6.85,11.15-1.56,2.61-8,.89-8.35.78" transform="translate(-9 -9)"/>
  <path class="cls-4" d="M567.17,134.13c-9.71,3.06-18.17,9.17-15.84,9.39,14.28,1.37,58.1-2,80.41.39,2.81.3-18.49-10.14-22.31-9.78C593,135.7,580.67,129.88,567.17,134.13Z" transform="translate(-9 -9)"/>
  <ellipse class="cls-4" cx="602.65" cy="67.48" rx="18.39" ry="17.22"/>
  <ellipse class="cls-4" cx="545.52" cy="34.09" rx="18.39" ry="17.22"/>
  <ellipse class="cls-4" cx="607.61" cy="92.52" rx="18.39" ry="17.22"/>
  <path class="cls-4" d="M586.87,54.3c-17.17-13.84-57.5-8.17-25.44-37.56,9.4-8.61,24.9-5.62,40.7,9.78,10.39,10.13,21.63,23,21.13,35.35C622.81,73.13,604,68.15,586.87,54.3Z" transform="translate(-9 -9)"/>
  <path class="cls-5" d="M602,105.08c-.92,6.52-1.18,12.35-.66,15.48.86,5.12-26,6.74-24.26,1.57a44.8,44.8,0,0,0,1.06-7.57h0c-16.08,2.09-25-3.91-28.42-27.18C547.37,71.17,554,52.5,568.33,48c15.8-5,35.58,8.82,39.1,26.43.37,1.83,6.14.43,6.5,5.5a15.77,15.77,0,0,1-2.93,11c-2.61,4-5.39,2.25-5.88,3.35-.76,1.71-1.51,3.1-1.55,3.24" transform="translate(-9 -9)"/>
  <path class="cls-2" d="M586.5,68.28c.13-.83-5.51-4.72-9.52-3.17-.35.14-2.73.37-2.65.9.11.84,3.45,1.22,6.22,1.08C582.21,67,586.4,68.83,586.5,68.28Z" transform="translate(-9 -9)"/>
  <path class="cls-2" d="M559,66.67c0-.85-6.15-3.87-9.88-1.75-.33.19-2.65.76-2.5,1.28.24.81,3.6.7,6.32.15C554.58,66,559,67.23,559,66.67Z" transform="translate(-9 -9)"/>
  <ellipse class="cls-3" cx="568.61" cy="69.96" rx="1.7" ry="2.48"/>
  <path class="cls-1" d="M565,84.24c-2.42.8-5.45,3.68-4.69,5.09.6,1.11,4.5,1.34,6.26.78" transform="translate(-9 -9)"/>
  <path class="cls-1" d="M560.52,78.8c2.59-4,5.47-4.89,9.78,1.33" transform="translate(-9 -9)"/>
  <path class="cls-6" d="M572.33,97c2.74-.39,2.25.66,2.15.72-6,3.43-10,4.66-12.31,2.84-1.55-1.2-.84-2-.48-2.85a.77.77,0,0,1,.3-.33c-1.19-.26-2-.61-2.11-1.06-.19-1-.75-1.82,1-2.71,2.65-1.34,5.33-1.29,10.52,3.2C571.54,96.94,572.45,96.94,572.33,97Z" transform="translate(-9 -9)"/>
  <path class="cls-4" d="M577.61,122.65c.16-2.73.65-7.54.39-7.82-.48-.51,7.42-.54,10-.26C593,115.09,577.48,124.73,577.61,122.65Z" transform="translate(-9 -9)"/>
  <path class="cls-4" d="M577.74,89.52a8.32,8.32,0,0,1-8.41-8V76.41c1.76-6.84,9-6.26,9-6.26,6.26,1.57,8,2.94,8.28,6.7l-.26,4.45C586.35,86.91,583.35,89.52,577.74,89.52Z" transform="translate(-9 -9)"/>
  <path class="cls-4" d="M552.7,89.52a8.34,8.34,0,0,1-8.42-8V76.41c1.76-6.84,9-6.26,9-6.26,6.26,1.57,8,2.94,8.29,6.7l-.27,4.45C561.3,86.91,558.31,89.52,552.7,89.52Z" transform="translate(-9 -9)"/>
  <path class="cls-4" d="M607.61,73.35c-3.65,5-9.91,18-11.48,16.69-2.71-2.26,9.11-16.28,0-17.74-5-.79-7.46-14.7-1-19.56C597.9,50.61,613.08,65.92,607.61,73.35Z" transform="translate(-9 -9)"/>
  <ellipse class="cls-4" cx="598.28" cy="81.24" rx="0.2" ry="0.33"/>
  <path class="cls-5" d="M576,124.22c-7-1.57-10.43,7.3-6,9.9,11.76,6.87,19.31,3.93,32.87.52,4.65-1.17,2.41-14.78-1.82-12.77C585.17,129.43,579.14,124.91,576,124.22Z" transform="translate(-9 -9)"/>
  <ellipse class="cls-5" cx="597.53" cy="120.89" rx="4.66" ry="5.15"/>
  <path class="cls-5" d="M620.13,128.65c0,1.59-3.13,8.61-6.65,9.13-2.92.44-5.41-3.43-5.41-5s2.45-.72,5.41-.72S620.13,127.07,620.13,128.65Z" transform="translate(-9 -9)"/>
  <path class="cls-5" d="M609.43,137.26c0,2.16,1.54,5.22.53,5.22s-6.26-1.67-6.26-5.22c0-5.09,2.9-3.91,3.91-3.91S609.43,135.1,609.43,137.26Z" transform="translate(-9 -9)"/>
  <path class="cls-9" d="M281.23,79.64c0,11.94,4.55,21.62-.69,21.62s-20.93,1.57-20.93-10.37S266.5,58,271.74,58,281.23,67.7,281.23,79.64Z" transform="translate(-9 -9)"/>
  <path class="cls-9" d="M322.49,81.4c0,11.94-4.56,21.62.68,21.62s20.94,1.57,20.94-10.37-9.48-40-14.72-40S322.49,69.46,322.49,81.4Z" transform="translate(-9 -9)"/>
  <path class="cls-4" d="M315.43,120.57c10.67,3.8,29.89,21.57,23,22.17-24.26,2.09-63.39-1.07-75.13-.26C255.7,143,276.7,126,286,122.13,290.06,120.41,301.78,115.69,315.43,120.57Z" transform="translate(-9 -9)"/>
  <path class="cls-10" d="M336.3,89.26c-.88,3.47-5.62,4.26-5.73,4.44-3.92,6-8.67,8-16.6,11L313,110c0,1.66,0,1.47-.09,1.76.49,5.25-18.06,7.53-20,2.25-.45-1.25,1.06-7.19.33-7.37-.31-.07-3.8-.58-4.1-.66-19.29-4.85-24.79-23.71-16.36-35.58.34-.49,8.77-14.54,29.8-12.78,15,1.25,27.63,10.61,29.76,21.91a5.77,5.77,0,0,1,.82.2C336.79,80.83,338,82.51,336.3,89.26Z" transform="translate(-9 -9)"/>
  <path d="M294.79,100c-1,.85-1.26,1.42-3.61.58-.93-.33-1.63-1-1.65-1.56-.07-1.41,3,1.63,5.78-1.55C297,95.58,295.85,99.14,294.79,100Z" transform="translate(-9 -9)"/>
  <path class="cls-3" d="M280.48,82.48c0,1.37-.76,2.48-1.7,2.48s-1.69-1.11-1.69-2.48.76-2.48,1.69-2.48S280.48,81.11,280.48,82.48Z" transform="translate(-9 -9)"/>
  <ellipse class="cls-3" cx="293.52" cy="73.48" rx="1.7" ry="2.48"/>
  <ellipse class="cls-1" cx="268.48" cy="71.16" rx="10.83" ry="10.14"/>
  <ellipse class="cls-1" cx="295.22" cy="72.13" rx="11.74" ry="11"/>
  <path class="cls-1" d="M289.93,87.76c-2.42.8-3.3,3.29-2.54,4.7a3.5,3.5,0,0,0,4.11,1.17" transform="translate(-9 -9)"/>
  <path class="cls-1" d="M288.17,81.89c1.14-1.76,2.41-2.15,4.31.59" transform="translate(-9 -9)"/>
  <polygon class="cls-4" points="284.26 103.8 295.02 97.54 284.06 97.54 284.26 103.8"/>
  <path class="cls-2" d="M309,79c0-.69-3.05-4.28-7.17-3.85-3.72.4-6.26,3.3-6.13,3.72.19.66,4.32-2.39,6.59-2.22C304.8,76.87,309,79.47,309,79Z" transform="translate(-9 -9)"/>
  <path class="cls-2" d="M284.39,78.7c.06-.69-2.57-3.37-5.12-3.62-2.3-.23-5.88,2.39-5.84,2.83.07.69,4.63-1.83,6-1.28S284.35,79.14,284.39,78.7Z" transform="translate(-9 -9)"/>
  <path class="cls-9" d="M302.46,46.09c-21.13-11.74-30.53,3.13-35.81,12.13-4.55,7.76-10.3,30.67-5.08,34.63,1.5,1.14,5.24,1.82,5.28.19.19-9,2.35-20.34,5.08-21.71,7.26-3.63,11.16-4.5,13.9-4.9,5.18-.74,5.67-8,9.39-8.6,2.06-.33-3.09,8.23,3.71,9,12.14,1.37,22.61,3.26,24.66,9.58,1.48,4.6-2.71,8.44.06,10.37a1.45,1.45,0,0,0,2-.26c4-5,6.26-6.78,8.09-6,.94.41,2.46-3.17,3-4.11,1.56-2.74,1.37-4.69.19-10.17C334.88,56.86,324.57,34.15,302.46,46.09Z" transform="translate(-9 -9)"/>
  <path class="cls-1" d="M302.13,49c-.67-6.52-1.59-8.47-2.22-10.05" transform="translate(-9 -9)"/>
  <path class="cls-1" d="M302.26,50.52a38.13,38.13,0,0,1,2.22-10" transform="translate(-9 -9)"/>
  <ellipse class="cls-11" cx="323.46" cy="80.13" rx="0.2" ry="0.26"/>
  <path class="cls-5" d="M289.87,113.26c2.48.28,6.75,1.37,7.3,3.39.71,2.58-1.56,6.26-4.17,11.48-1.61,3.21-9.32.93-10.43-2.61C281.2,121.19,286.27,112.85,289.87,113.26Z" transform="translate(-9 -9)"/>
  <path class="cls-5" d="M312.3,112.48c-4.95,1.82-11.73,2.35-14.08,5.74-1.11,1.6,1,9.43,3.13,10.95,4.45,3.13,17.75-1.34,17.74-7.56C319.08,118.76,314.9,111.52,312.3,112.48Z" transform="translate(-9 -9)"/>
</svg>
