<svg id="Layer_5" data-name="Layer 5" xmlns="http://www.w3.org/2000/svg" viewBox="0 0 689.22 459.66">
  <defs>
    <style>
      .cls-1, .cls-11, .cls-8 {
        fill: none;
      }

      .cls-1, .cls-10, .cls-11, .cls-2, .cls-3, .cls-4, .cls-5, .cls-6, .cls-7, .cls-8, .cls-9 {
        stroke: #000;
      }

      .cls-1, .cls-10, .cls-11, .cls-3, .cls-4, .cls-5, .cls-6, .cls-7, .cls-8 {
        stroke-linecap: round;
      }

      .cls-1, .cls-11, .cls-3, .cls-4, .cls-5, .cls-7, .cls-8 {
        stroke-linejoin: round;
      }

      .cls-1, .cls-10, .cls-4, .cls-5 {
        stroke-width: 2px;
      }

      .cls-10, .cls-2, .cls-6, .cls-9 {
        stroke-miterlimit: 10;
      }

      .cls-2, .cls-3, .cls-6 {
        stroke-width: 0.75px;
      }

      .cls-10, .cls-5 {
        fill: #fff;
      }

      .cls-8 {
        stroke-width: 3px;
      }
    </style>
  </defs>
  <g>
    <g>
      <path d="M253.22,11v131H16.14V76.51A65.58,65.58,0,0,1,81.64,11H253.22m.75-.75H81.64A66.25,66.25,0,0,0,15.39,76.51V142.8H254V10.26Z" transform="translate(-15.39 -10.26)"/>
      <path d="M129.51,143.55V318.78H16.14V143.55H129.51m.75-.75H15.39V319.53H130.26V142.8Z" transform="translate(-15.39 -10.26)"/>
      <path d="M350.41,143.55V318.78H131V143.55h219.4m.75-.75H130.26V319.53h220.9V142.8Z" transform="translate(-15.39 -10.26)"/>
      <path d="M491.79,11V318.78H351.91V11H491.79m.75-.75H351.16V319.53H492.54V10.26Z" transform="translate(-15.39 -10.26)"/>
      <path d="M350.41,11v131H254.72V11h95.69m.75-.75H254V142.8h97.19V10.26Z" transform="translate(-15.39 -10.26)"/>
      <path d="M253.22,320.28V469H81.64a65.58,65.58,0,0,1-65.5-65.5V320.28H253.22m.75-.75H15.39v84a66.25,66.25,0,0,0,66.25,66.25H254V319.53Z" transform="translate(-15.39 -10.26)"/>
      <path d="M491.79,320.28V469H254.72V320.28H491.79m.75-.75H254V469.74H492.54V319.53Z" transform="translate(-15.39 -10.26)"/>
      <path d="M638.36,11a65.58,65.58,0,0,1,65.5,65.5v65.54H493.29V11H638.36m0-.75H492.54V142.8H704.61V76.51a66.25,66.25,0,0,0-66.25-66.25Z" transform="translate(-15.39 -10.26)"/>
      <path d="M703.86,143.55V318.78h-95.7V143.55h95.7m.75-.75h-97.2V319.53h97.2V142.8Z" transform="translate(-15.39 -10.26)"/>
      <path d="M606.66,143.55V318.78H493.29V143.55H606.66m.75-.75H492.54V319.53H607.41V142.8Z" transform="translate(-15.39 -10.26)"/>
      <path d="M703.86,320.28v83.21a65.58,65.58,0,0,1-65.5,65.5H493.29V320.28H703.86m.75-.75H492.54V469.74H638.36a66.25,66.25,0,0,0,66.25-66.25v-84Z" transform="translate(-15.39 -10.26)"/>
    </g>
    <path class="cls-1" d="M118.52,106.48c0,.94,0,2.56,0,3.71.13,4,0-.06.13,3,.13,2.3.31,2.54,1.28,3.84,2.3,3.07,12.06,2.92,15.75,2.3,1.54-.26,7.43-.9,7.43-4.22,0-2.6.12-3.07,0-4.1-.68,0-.44.19-1.15.13-1.28-.1-1.57-.19-2.67-.27h.54c19.16-.88,21.73-11.66,22-28.15.38-24.85-9.55-30.91-26.64-32.78-16.08-1.78-25.11,7-25.64,23-6.12-.77-5.32,6.59-3.69,12.55,1.54,5.64,3.46,5.26,5.13,5.26a11.24,11.24,0,0,0,1.15-.13c1.13,4.37,3.71,8.51,3.33,8.32" transform="translate(-15.39 -10.26)"/>
    <path class="cls-2" d="M157.07,73.12c0-.68-4.94-3.11-7.94-1.41-.27.15-2.13.61-2,1,.19.65,2.9.56,5.08.12C153.51,72.6,157.06,73.56,157.07,73.12Z" transform="translate(-15.39 -10.26)"/>
    <path class="cls-3" d="M123.06,72.78c0-.68,5.44-2.52,9.06-.7.32.16,1.65.83,1.52,1.24-.2.65-2.53.13-5.13-.4C127,72.61,123.08,73.23,123.06,72.78Z" transform="translate(-15.39 -10.26)"/>
    <path class="cls-1" d="M140.8,75.74c1.67,7.3,4.22,13,6,12.81,2.82-.26,4,5.63-1.79,5.76-2.78.06-4.27-1.75-4-1.92" transform="translate(-15.39 -10.26)"/>
    <path class="cls-3" d="M132.54,82c0,1.53-.85,2.78-1.91,2.78-.77,0-1.17-.18-1.48-1.12l.9-1.53L128.64,81a1.74,1.74,0,0,1,2-1.76C131.69,79.23,132.54,80.48,132.54,82Z" transform="translate(-15.39 -10.26)"/>
    <path class="cls-3" d="M154.06,81.38c0,1.53-.86,2.78-1.92,2.78-.76,0-1.17-.18-1.47-1.12l.89-1.54-1.41-1.15a1.74,1.74,0,0,1,2-1.76C153.2,78.59,154.06,79.84,154.06,81.38Z" transform="translate(-15.39 -10.26)"/>
    <path class="cls-4" d="M137.47,111.21c-.12-.25,6.1-.92,5.9-.51-.13.26-.34,5.27-.52,5.64S137.88,112,137.47,111.21Z" transform="translate(-15.39 -10.26)"/>
    <path d="M139.64,101.21a10,10,0,0,0,7.29.43c1.39-.39,2.65-.75,2.71-1.31.15-1.51-7.27,1.38-11.24-1.91C136,96.43,138,100.57,139.64,101.21Z" transform="translate(-15.39 -10.26)"/>
    <path class="cls-4" d="M148.68,56.47c-8.62-1.69-20.94-6.47-30.93.06-4.81,4.94-7,8.35-7,11.54,0,1.77,2.23,2.87,2.23,4.85,0,1.8-1.54,2.44-2,1.41,0,0-.7-1.75-.77-1.79-3.75-2.16-6.59,1.54-6.85,3.78-1,8.62,3.39,14.8,4.35,14.72,5.49-.45,9.67,7.5,7.36,8.65C109.44,102.5,83.17,68,96.62,53a12.5,12.5,0,0,1,3.67-2.4c1-6.53,10.1-13.77,22.43-17.26,11.52-3.26,22.35-2.26,27.21,2,7.4,1.18,11.88-2.94,16.23-1C171.74,36.87,170.19,60.7,148.68,56.47Z" transform="translate(-15.39 -10.26)"/>
    <path class="cls-1" d="M144.13,113.9c3.85-.76,7.94,2.57,8.46,6.41.57,4.31-2.54,8.07-3.33,8.7" transform="translate(-15.39 -10.26)"/>
    <path class="cls-1" d="M141.83,129.27" transform="translate(-15.39 -10.26)"/>
    <path class="cls-1" d="M143.62,121.84" transform="translate(-15.39 -10.26)"/>
    <path class="cls-1" d="M174.1,137.21" transform="translate(-15.39 -10.26)"/>
    <path class="cls-1" d="M177.17,128.76" transform="translate(-15.39 -10.26)"/>
    <path class="cls-1" d="M124.93,127.73a12.88,12.88,0,0,0-3.85-8.45c-.45-.45-5.38-10-16.13-6.66-6.35,2-9.22,12.55-2,17.68" transform="translate(-15.39 -10.26)"/>
    <path class="cls-1" d="M95.73,140.8c5.55-7.93,4.48-12.2,13.57-11.53,6.92.51,7,2.74,7.94,4.1" transform="translate(-15.39 -10.26)"/>
    <path class="cls-1" d="M141.83,127c4.87-.77,11.78,4.09,18.95,14.34" transform="translate(-15.39 -10.26)"/>
    <path class="cls-4" d="M698.25,222.63c2.37,11.54,2.5,39.95-.19,52.63-.94,4.42-15.48.38-19.79.38-12.15,0-25.55-30.08-25.55-47.06s19.79-26.7,27.86-25.55C692.6,204.75,696.71,215.14,698.25,222.63Z" transform="translate(-15.39 -10.26)"/>
    <path class="cls-4" d="M642.54,238.22c0,10.24,15.9,38.85,4.23,40.81-9.41,1.57-8.69.44-21.71.52-6.6,0-13-1.27-12.1-4,4.23-13.3.52-24.9,1.15-36.76C616,203,627.56,205.65,636.4,205,645.06,204.27,642.54,223.33,642.54,238.22Z" transform="translate(-15.39 -10.26)"/>
    <path class="cls-5" d="M674.05,265.85c1.53,5.76,1.79,7.71,3.45,11.2,5.64,11.78-27.92,18.18-22.79,9.22a24.46,24.46,0,0,0,3.69-11.07l-.11.06c-1.68.84-12.54,6.26-21.51,1.53-17.14-9-21.28-51.85.77-68.38,10-7.52,26.76-10.54,36.12-3.07,4.5,3.6,7.56,9,9.05,15.34a43,43,0,0,1,.81,14.38c-.35,3.36,4.78.5,4.54,5.62-.77,16.33-8.61,10.84-9.22,12.3-.87,2.05-2.5,2.69-2.12,2.69" transform="translate(-15.39 -10.26)"/>
    <path class="cls-1" d="M639.36,238.25c-1.66,7.3-4.21,13-6,12.81-2.81-.26-4,5.63,1.8,5.76,2.78.06,4.27-1.75,4-1.92" transform="translate(-15.39 -10.26)"/>
    <path class="cls-2" d="M632.87,243.76c0,.34-.5.24-2.4.09a40.08,40.08,0,0,0-4.83-.09c-.68.08-6.95-2-.46-1.57a8.86,8.86,0,0,1,.09-1.14c.21-1.83.63-2.94,1.07-3,.27,0,.19.26.06,1.36a17.54,17.54,0,0,0-.09,2.73.23.23,0,0,1,0,.13l1.56.17C631,242.8,632.87,243.22,632.87,243.76Z" transform="translate(-15.39 -10.26)"/>
    <path class="cls-2" d="M655.91,244.93c0,.34-.5.24-2.4.1a38.55,38.55,0,0,0-4.83-.1c-.68.09-6.95-2-.46-1.57a8.86,8.86,0,0,1,.09-1.14c.21-1.83.63-2.94,1.07-3,.27,0,.19.25.06,1.35a17.54,17.54,0,0,0-.09,2.73.26.26,0,0,1,0,.14l1.56.16C654.06,244,655.91,244.39,655.91,244.93Z" transform="translate(-15.39 -10.26)"/>
    <path class="cls-6" d="M642.39,264.5c-8.07-1.66-7.5-5.05-10.12-3.58-2,1.15-1.15,3.74.13,3.84C635.6,265,644.05,264.84,642.39,264.5Z" transform="translate(-15.39 -10.26)"/>
    <path class="cls-6" d="M642.39,264.76c-5.25,4.22-6,5.5-8.58,4.1-1.69-.93-1.11-1.77-.9-2.69C633.33,264.4,643.66,263.73,642.39,264.76Z" transform="translate(-15.39 -10.26)"/>
    <path class="cls-7" d="M650.92,229.69c-3.19.16-6.16,1-5.95,1.7s5,1.32,5.64,1.23c.82-.13,10.18,2.58,10.18,1.71C660.79,233.67,653.11,229.59,650.92,229.69Z" transform="translate(-15.39 -10.26)"/>
    <path class="cls-7" d="M627.88,228.36c3.19.15,6.15,1,5.94,1.69s-5,1.32-5.63,1.23c-.82-.12-6.78,1.05-6.78.18C621.42,230.8,625.69,228.25,627.88,228.36Z" transform="translate(-15.39 -10.26)"/>
    <path class="cls-4" d="M655.6,285c1.77-2.5,3-8.88,2.18-9.22-.64-.25,6.39-3.47,9-3.2C671.61,273.08,654.42,286.66,655.6,285Z" transform="translate(-15.39 -10.26)"/>
    <path class="cls-4" d="M675,235.89c-4.81-1.62-5.45-7-15.37-10.19l-.39-7.49-5,5.28c-.71-.13-7.37-1.84-8.07-2-9.71-2.4-17.15-1.41-18.63,1.54-10,20-13.45,2.18-8.07-8.83,8.27-16.91,13.41-23.05,35.16-23.05s28.62,19.4,31.89,31.88C689,232.61,685.17,239.3,675,235.89Z" transform="translate(-15.39 -10.26)"/>
    <path class="cls-4" d="M680.77,239c-1.71,1.33-4.68,5.54-7.24,8.62-1.53,1.84-2.72.47-1.79-3.08,2.17-8.27-2.93-21.1-1-19.2S697.35,226.08,680.77,239Z" transform="translate(-15.39 -10.26)"/>
    <path class="cls-5" d="M653.56,287.94c-.55-.49-4.23,2.69-2.18,5,4.86,5.47,26.13,1.78,31.76-8.07,1.28-2.24-2.9-6.27-5.25-3.71C669.31,290.5,659.57,293.32,653.56,287.94Z" transform="translate(-15.39 -10.26)"/>
    <path class="cls-4" d="M650.74,292.8c-.9-.38-35.1,26.13-32,26.13l80.3-.26c-.64-9.48-2.56-35.47-15.88-33.81C680.12,285.24,670.59,301.26,650.74,292.8Z" transform="translate(-15.39 -10.26)"/>
    <ellipse class="cls-7" cx="559.34" cy="363.16" rx="14.41" ry="19.02"/>
    <path class="cls-5" d="M642.8,417.15c-2,13.31,0,14.34,2.81,21,4.45,10.51-37.79,24.59-35.09,13.83,1-4.1,2.06-9.22-1.53-14.85-16.15,9.39-19.78,5.05-39.55-5.45-23.51-12.47-12.33-30.73-5-48,7.93-18.78,14.09-25.26,16.26-25.68,20.62-4,44,2.24,58.06,15,9.09,8.28,9.93,19,5.89,29.39" transform="translate(-15.39 -10.26)"/>
    <path class="cls-3" d="M591.41,396.32c0,2.43,1.35,4.4,3,4.4,1.21,0,1.86-.27,2.34-1.77l-1.42-2.43,2.23-1.82c-.16-2.23-1.58-2.79-3.15-2.79S591.41,393.88,591.41,396.32Z" transform="translate(-15.39 -10.26)"/>
    <path class="cls-3" d="M563.62,395c0,2.42,1.35,4.4,3,4.4,1.21,0,1.86-.28,2.34-1.77l-1.42-2.43,2.23-1.83c-.15-2.22-1.58-2.79-3.15-2.79S563.62,392.54,563.62,395Z" transform="translate(-15.39 -10.26)"/>
    <path class="cls-1" d="M576,395c2.1-2.73,4.44-3.34,7.94.91" transform="translate(-15.39 -10.26)"/>
    <path class="cls-6" d="M584.08,423.23c2.69-.38,2.21.65,2.12.71-5.85,3.36-9.77,4.57-12.08,2.79-1.53-1.18-.83-1.93-.47-2.8a.68.68,0,0,1,.29-.33c-1.17-.25-2-.59-2.07-1-.19-.93-.74-1.78,1-2.66,2.6-1.31,5.23-1.27,10.33,3.14C583.31,423.15,584.2,423.15,584.08,423.23Z" transform="translate(-15.39 -10.26)"/>
    <path class="cls-4" d="M611.94,446.73c1-2.75-2.08-9.27-2.69-9.22-4.61.38,14.84-6.8,17.41-6.53C631.53,431.49,611.22,448.65,611.94,446.73Z" transform="translate(-15.39 -10.26)"/>
    <path class="cls-1" d="M625.64,394.74c1.92-2.5,4.62-2.11,6.91,0,5,4.58.72,17.53-4.22,18.44-1.77.32-3.49-.91-4.61-1.92" transform="translate(-15.39 -10.26)"/>
    <path class="cls-1" d="M580.31,397.75c0,6.27-3.23,6.28-6.41,6.79-2.23.35-4.06,2-3.84,3.07,1,4.8,4.29,4.63,5.19,4.61,3.06-.08,4.71-.45,7.1-3" transform="translate(-15.39 -10.26)"/>
    <path class="cls-1" d="M592.23,405.34c-7.08-2.27-10.51-11.82-7.94-16,3.89-6.24,23.28-3.06,24.83,3.12C610.35,397.42,601.26,408.24,592.23,405.34Z" transform="translate(-15.39 -10.26)"/>
    <path class="cls-1" d="M560.49,405.52c-7.27-1.57-11.62-10.75-9.46-15.11,3.26-6.6,22.87-5.32,25,.68C577.74,395.86,569.76,407.52,560.49,405.52Z" transform="translate(-15.39 -10.26)"/>
    <path class="cls-7" d="M570.92,374.9c3.1.72,5.88,2,5.55,2.72s-5.2.41-5.77.21c-.78-.26-10.48.74-10.32-.11C560.5,377.07,568.78,374.41,570.92,374.9Z" transform="translate(-15.39 -10.26)"/>
    <path class="cls-7" d="M597.51,376.83c-3.18.16-6.15,1-5.94,1.7s5,1.32,5.64,1.23c.81-.13,10.18,2.58,10.18,1.71C607.39,380.81,599.7,376.73,597.51,376.83Z" transform="translate(-15.39 -10.26)"/>
    <path class="cls-7" d="M663.29,364.15c8.23,3.68,13.43,19,4.51,29.89-14.12,17.22-13.35,11.84-26.79,20.29-7.64,4.8-8.75-20.8-3-33.63S655.06,360.46,663.29,364.15Z" transform="translate(-15.39 -10.26)"/>
    <path class="cls-7" d="M662.74,361.61c-1.79,11.1-2.6,29.21-26,25.45-8.44-1.37-12.29-20.37-33.42-22.29-29-2.63-43.29-14.7-36.89-23,6.85-8.92,33.87-10.81,57.23-7S664.53,350.51,662.74,361.61Z" transform="translate(-15.39 -10.26)"/>
    <path class="cls-7" d="M641.39,390.13c-6.15,18.82-5.76-6.92-21.13,10-1.78,2-5.94,3.52-5.23-3.25s2.78-9.31.62-13.27c-2.31-4.23,5.93-21,10.76-18.83S644.19,381.56,641.39,390.13Z" transform="translate(-15.39 -10.26)"/>
    <circle class="cls-7" cx="612.55" cy="399.27" r="0.58"/>
    <path class="cls-4" d="M610.37,453.61c-.1-.41-24.33,8.94-23,14.76,0,0,57.5,2.05,67.23-1.79,1-.4,20.11-6.53,24.84-12.55,3.38-4.29-29.77-19.43-33.68-13.45s-10.71,13.55-22.28,14.6C616,455.86,610.88,455.82,610.37,453.61Z" transform="translate(-15.39 -10.26)"/>
    <path class="cls-4" d="M588.37,293.12c-2.3-6.34-41.81.64-46.29,3.65-5.91,4,7.49,5.38,7.49,5.38.39.71,26.13,1.22,34.19,1.09C589.61,303.15,590.67,299.44,588.37,293.12Z" transform="translate(-15.39 -10.26)"/>
    <path class="cls-4" d="M521.65,299.85c4.47-2.24,23.11-4.35,22.54-3.46-8.9,13.8-9.51,22.57-10.47,22.57-11.27,0-9.63.1-9.63.1S518.58,301.38,521.65,299.85Z" transform="translate(-15.39 -10.26)"/>
    <ellipse class="cls-4" cx="568.37" cy="207.18" rx="12.68" ry="24.78"/>
    <path class="cls-4" d="M558.79,255.63c-21.13,10.41-39.12,11.5-37.65-7.65,2.31-30-3.84-36.53.77-43.79,6.2-9.77,25.64-5.35,35.93,10.87S569.16,250.52,558.79,255.63Z" transform="translate(-15.39 -10.26)"/>
    <path class="cls-5" d="M574.93,280.64c-.26,2.3-.13,3.69,1.28,13.06s-35.11,13.45-33.3,4.1c1-5.36,1.15-8.5.64-12.26a38.17,38.17,0,0,1-20-6.38,33.85,33.85,0,0,1-9.49-10.34C503,251.37,521.85,201.53,532.2,199c12-3,24.1-4.11,37.09-.86,7,1.74,13.87,16.35,16.65,32.6.28,1.66.52,3.33.72,5,.42,3.69,6.16-2.66,7.22,5,2.18,15.75-5.12,16.52-8.64,16.07a26.25,26.25,0,0,0-.84,3.65c-.89,3.85-2.69,9.15-5.82,12.17" transform="translate(-15.39 -10.26)"/>
    <path class="cls-2" d="M562,241.52c0-.69-3-4.21-7-3.78-3.65.38-6.14,3.23-6,3.65.19.65,4.25-2.36,6.47-2.18C557.83,239.4,562,242,562,241.52Z" transform="translate(-15.39 -10.26)"/>
    <path class="cls-2" d="M527.8,241.13c0-.68-3-4.2-7-3.78-3.65.39-6.14,3.24-6,3.65.19.65,4.24-2.35,6.47-2.17C523.64,239,527.79,241.58,527.8,241.13Z" transform="translate(-15.39 -10.26)"/>
    <path d="M540.93,269.88c-1.73.8-5.3,1.87-8.26-.19-1.19-.83-3.5-3.67-3.33-4.42.44-2,4.61.9,10.37-.26C543.36,264.28,542.76,269,540.93,269.88Z" transform="translate(-15.39 -10.26)"/>
    <path class="cls-7" d="M553.91,219.78c5.17-.91,10.7,2.67,10.66,4.53,0,2.21-8,2.36-9,2.38-1.36,0-8.12.15-8.47-1.93C546.86,223.17,550.35,220.4,553.91,219.78Z" transform="translate(-15.39 -10.26)"/>
    <path class="cls-7" d="M519.33,220.93c5.18-.91,10.7,2.67,10.67,4.53,0,2.21-8,2.36-9,2.38-1.36,0-8.13.16-8.48-1.93C512.28,224.32,515.77,221.55,519.33,220.93Z" transform="translate(-15.39 -10.26)"/>
    <path class="cls-1" d="M537.47,241.5c.06,5.33-8.84,5.63-6.18,10.06,1.41,2.35,7.21.8,7.52.7" transform="translate(-15.39 -10.26)"/>
    <path class="cls-4" d="M511.92,265.27c-.38,8.45,3.07,22.41,15.75,25,34.74,7,40.85-.13,51.61-17.67a92.13,92.13,0,0,0,4.61-10.89c.8-2.75-14.09,5.13-31.74-3.91-5.15-2.64-12.47-2.16-17.95-2.23-5-.07-11.29,2.8-14.85,4.1C516.53,260.66,512.12,260.89,511.92,265.27Zm24.59,14.6c-4.48-.18-14-2.69-14.09-14.09,0-8.51,26.92-7.35,26.64-2.3C548,282.17,541.31,280.06,536.51,279.87Z" transform="translate(-15.39 -10.26)"/>
    <path class="cls-4" d="M577.23,234.54c-1-8.29-2.77-13.84,7.3-10,1.37.52,7.82,10.78,1.34,13-4.41,1.55,0,24.94-4,26.52C565.32,270.65,579.54,253,577.23,234.54Z" transform="translate(-15.39 -10.26)"/>
    <path class="cls-4" d="M585.68,232.23c-7.21,0-17.67-9.11-17.67-18.44a23.32,23.32,0,0,1,1.4-8.34c-11.84-7.39-48.14,6.66-57.49-12.79-18-37.45,36.11-22.66,53-18.06,14.53,4,23.43,10.39,23.43,19.4a22.39,22.39,0,0,1-1.13,6.9,18.85,18.85,0,0,1,5.36,13.66C592.6,223.9,592.9,232.23,585.68,232.23Z" transform="translate(-15.39 -10.26)"/>
    <path class="cls-4" d="M588.76,296.26c-1.8-6.79-22.67.58-27.15,3.59-5.91,4,2.18,18.25,2.18,18.25.38.7,26.12,1.21,34.19,1.08C603.82,319.09,590.47,302.76,588.76,296.26Z" transform="translate(-15.39 -10.26)"/>
    <path class="cls-8" d="M537.37,307.05c5.67,2.4,12.87,3.65,27,3.36" transform="translate(-15.39 -10.26)"/>
    <path class="cls-8" d="M535.93,313.58c6.34,1.73,14.7,3.27,27.86,4.52" transform="translate(-15.39 -10.26)"/>
    <path class="cls-4" d="M50.71,257.32l.19.39-.15.05A2.18,2.18,0,0,0,50.71,257.32Z" transform="translate(-15.39 -10.26)"/>
    <path class="cls-4" d="M58,247.53s0,.05,0,.07a1.82,1.82,0,0,1,0-.3Z" transform="translate(-15.39 -10.26)"/>
    <path class="cls-4" d="M85.63,215.6l.14.21h-.15A1.62,1.62,0,0,0,85.63,215.6Z" transform="translate(-15.39 -10.26)"/>
    <path class="cls-4" d="M99.92,196.68c-.44-.11-.89-.21-1.33-.29A10.29,10.29,0,0,0,99.2,195,10.27,10.27,0,0,1,99.92,196.68Z" transform="translate(-15.39 -10.26)"/>
    <path class="cls-1" d="M55.9,257.14c-2.7,1.82-3.84-.13-5.25-1.67s-5.38-7.94-3.46-13.57c1.38-4,4-2.65,5.77-4.35.83-.79.78-2.51.83-2.9,1.89-15.81,10.38-27,25-26.56C96,208.6,104,223.64,106.48,244c1.54,12.55,2.12,33.72-8.94,41.27A16.87,16.87,0,0,1,88,288a21.59,21.59,0,0,1-12.3-3.85,3.36,3.36,0,0,1,.78,1.55c.25,4.35.76,5.63.76,7.68,0,5.39-14.59,4.36-18.18-.77-2-2.87-.77-2.56.25-13.31.47-4.8.39-11.4-.76-15.44" transform="translate(-15.39 -10.26)"/>
    <path class="cls-4" d="M77,294.21c-.19-2.69,0-8.64-1.15-9.79-1.77-1.78-8.37-4.67-6.92-2.69C72.23,286.14,77.18,296.25,77,294.21Z" transform="translate(-15.39 -10.26)"/>
    <path class="cls-5" d="M74,298.05c-4.58,1.1-14.53-10.87-18.19-6.66-4.17,4.81-10.5,4.36-7.17,10.76.55,1.05-15.16,17-11.78,16.91,19.72-.26,57.11-.52,69.66-.26,1.87,0-18-14-17.67-14.6,3.59-6.4-8.45-9.37-9.73-10C77.35,293.38,80.17,296.57,74,298.05Z" transform="translate(-15.39 -10.26)"/>
    <path class="cls-1" d="M95.73,245.23c2.69,6,2.8,6.69,4.61,6.53,2.81-.26,2.69,6.92-1.8,6.15-2.74-.47-4.27-2.14-4-2.31" transform="translate(-15.39 -10.26)"/>
    <path class="cls-3" d="M87.79,246.64c0,1.53-.86,2.78-1.92,2.78-.77,0-1.17-.17-1.48-1.12l.9-1.53-1.41-1.16a1.74,1.74,0,0,1,2-1.76C86.93,243.85,87.79,245.1,87.79,246.64Z" transform="translate(-15.39 -10.26)"/>
    <path class="cls-3" d="M105.46,244.84c0,1.54-.85,2.78-1.91,2.78-.77,0-1.18-.17-1.48-1.11L103,245l-1.41-1.15a1.72,1.72,0,0,1,2-1.76C104.61,242.06,105.46,243.3,105.46,244.84Z" transform="translate(-15.39 -10.26)"/>
    <path class="cls-6" d="M90.48,268.28c8.06-1.66,7.5-5.06,10.11-3.59,2,1.16,1.16,3.74-.12,3.85C97.26,268.79,88.82,268.62,90.48,268.28Z" transform="translate(-15.39 -10.26)"/>
    <path class="cls-6" d="M90.48,268.54c5.25,4.22,6,5.5,8.58,4.09,1.69-.93,1.11-1.76.89-2.69C99.54,268.18,89.2,267.51,90.48,268.54Z" transform="translate(-15.39 -10.26)"/>
    <path class="cls-7" d="M84.71,236.78c-3.18-.15-6.28,1.55-6.14,2.3s5,.61,5.57.58c.82,0,4.92-.29,5-1.15C89.19,237.85,86.9,236.88,84.71,236.78Z" transform="translate(-15.39 -10.26)"/>
    <path class="cls-7" d="M103.78,236.13c-3.18.15-6.11,2.13-5.9,2.86s5,.15,5.6.06c.81-.13,4.87-.75,4.86-1.61C108.34,236.78,106,236,103.78,236.13Z" transform="translate(-15.39 -10.26)"/>
    <path class="cls-4" d="M70.88,280.19" transform="translate(-15.39 -10.26)"/>
    <path class="cls-4" d="M110.18,199.65c6.12-6.12,7.64-14.5,3.4-18.74-3-3-8.14-3.12-13-.72-.7-7.58-7.4-13.53-15.56-13.53A15.49,15.49,0,0,0,69.71,178.3a18.28,18.28,0,0,0-3.34-.3c-6.71,0-12.42,3.51-14.65,8.46a18.81,18.81,0,0,0-3.79-.39c-8.65,0-15.65,5.84-15.65,13.06a2,2,0,0,0,0,.25c-3.86,2.38-6.35,6.2-6.35,10.51a11.2,11.2,0,0,0,1.43,5.46c.14-.11.26-.22.4-.32,0,.27-.09.52-.13.79l-.27-.47a14.21,14.21,0,0,0-2.87,3.14c-3.21,4.78-3.08,10.64,0,14.13-3.11,5.36-2.24,11.81,2.13,14.74a8.72,8.72,0,0,0,5,1.46,9.88,9.88,0,0,0,.64,5.3c1.81,4.49,6.32,6.9,10.06,5.39a4.84,4.84,0,0,0,.72-.36,5.17,5.17,0,0,0,.54.92,3.17,3.17,0,0,0-.15,1c0,2.44,2.54,4.42,5.68,4.42a6.3,6.3,0,0,0,4.4-1.66c1.6,1.91,3,4,4.33,4,2,0,.39-4.11.39-6.34s-1.35-5.57-3.56-4c-.34.24-.79.51-1.25.78a6.17,6.17,0,0,0-3-1.43L49.1,254h0c-1.62-3.36-3.67-7.7-3.17-7.21s.31-7.5,1-7.67c2.51-.74,9.29-3.81,11,7.51-.24-2-.74-6.17-1.13-10a7.23,7.23,0,0,0,5.86.14c3.66-1.65,5.17-6.53,3.94-11.69,6.6,2.78,13.88,1.26,17.29-4a11.27,11.27,0,0,0,1.78-5.29,1.62,1.62,0,0,0,0-.22l.14.21A18.22,18.22,0,0,0,91,221c7.24,4.72,16.32,3.64,20.25-2.4,3.34-5.15,1.9-12.24-3.07-17.13A20.72,20.72,0,0,0,110.18,199.65Zm-11.59-3.26A10.29,10.29,0,0,0,99.2,195a10.27,10.27,0,0,1,.72,1.64C99.48,196.57,99,196.47,98.59,196.39Z" transform="translate(-15.39 -10.26)"/>
    <path class="cls-4" d="M99.92,196.68c-.44-.11-.89-.21-1.33-.29A10.29,10.29,0,0,0,99.2,195,10.27,10.27,0,0,1,99.92,196.68Z" transform="translate(-15.39 -10.26)"/>
    <path class="cls-4" d="M27.77,215c0,.27-.09.52-.13.79l-.27-.47C27.51,215.24,27.63,215.13,27.77,215Z" transform="translate(-15.39 -10.26)"/>
    <path class="cls-4" d="M27.77,215c0,.27-.09.52-.13.79l-.27-.47C27.51,215.24,27.63,215.13,27.77,215Z" transform="translate(-15.39 -10.26)"/>
    <path class="cls-4" d="M50.71,257.32c-.3-.61-.92-1.89-1.61-3.34a5.39,5.39,0,0,1,1.23,1.88A5.25,5.25,0,0,1,50.71,257.32Z" transform="translate(-15.39 -10.26)"/>
    <ellipse class="cls-7" cx="37.44" cy="243.41" rx="0.64" ry="0.78"/>
    <line class="cls-5" x1="38.84" y1="291.63" x2="43.45" y2="296.24"/>
    <line class="cls-5" x1="62.52" y1="297.45" x2="64.35" y2="303.24"/>
    <line class="cls-5" x1="76.24" y1="301.62" x2="77.52" y2="304.95"/>
    <line class="cls-5" x1="36.03" y1="302.39" x2="42.94" y2="303.93"/>
    <line class="cls-5" x1="51.01" y1="301.47" x2="55.1" y2="299.21"/>
    <path class="cls-1" d="M273,277.18c-1.53,1.54-6.34,2.69-12.78,3.61" transform="translate(-15.39 -10.26)"/>
    <path class="cls-4" d="M232.43,291.59c-4.64-6.6-51.55,27.58-43.6,27.27,30-1.15,85.09-.57,107.18,0,8.62.23-29.18-32.55-36.11-26.89C246.26,303.11,239.73,302,232.43,291.59Z" transform="translate(-15.39 -10.26)"/>
    <path class="cls-1" d="M260.18,280.79l-1.69.22a78.09,78.09,0,0,1,1.41,9.1c.52,2.75-12.1,9.21-16.52,9-4.61-.26-11.14-5.38-10.37-9.48a52.46,52.46,0,0,0,.71-9.36c-15.32-2.75-28.59-9.7-32.21-20.35-4.93-14.49,7.28-41.08,25.6-50.2,1.13-.56,26.54-12.67,48.16,3.08a45.26,45.26,0,0,1,16.17,23.38c.16.52,1.24-.33,3.55-.59.52-.06,3.1-.26,4.61,1,2.9,2.46,2.34,10,.51,13.06-2,3.38-6.47,1.4-6.78,4.25a26.45,26.45,0,0,1-3.72,11.63" transform="translate(-15.39 -10.26)"/>
    <path class="cls-3" d="M219,243.18c0,1.8-1,3.27-2.24,3.27s-2.23-1.47-2.23-3.27,1-3.27,2.23-3.27S219,241.38,219,243.18Z" transform="translate(-15.39 -10.26)"/>
    <path class="cls-3" d="M249.77,243.69c0,1.81-1,3.27-2.23,3.27s-2.24-1.46-2.24-3.27,1-3.26,2.24-3.26S249.77,241.89,249.77,243.69Z" transform="translate(-15.39 -10.26)"/>
    <path class="cls-1" d="M230.86,240.16c.66,4.28-1.92,6.62-3.49,8-2.52,2.14-5.77,2.19-6.66,4.87a5,5,0,0,0,1,4.61c2,2.29,6.72,2.47,11-.52" transform="translate(-15.39 -10.26)"/>
    <path class="cls-1" d="M211.24,234c1.79-3.07,11.78-9,16.39.52" transform="translate(-15.39 -10.26)"/>
    <path class="cls-4" d="M233.85,267.27c-.14,1.23,6.11,4.45,10.43,3.38,2.7-.67,3.77-3.54,3.43-4.6C247.05,264,234.07,265.23,233.85,267.27Z" transform="translate(-15.39 -10.26)"/>
    <path class="cls-4" d="M233.49,280.16c-.77-.1,4.9,8.16,8.35,8.16,1.77,0,9.78-6.71,6.82-6.91C245.88,281.21,239.9,281,233.49,280.16Z" transform="translate(-15.39 -10.26)"/>
    <path class="cls-1" d="M296.78,249.78c-.32,3-.33,4.6.9,4.73s1.53-3.24,1.66-3.45" transform="translate(-15.39 -10.26)"/>
    <ellipse class="cls-7" cx="282.45" cy="229.46" rx="0.86" ry="0.67"/>
    <ellipse class="cls-7" cx="282.96" cy="234.14" rx="0.86" ry="0.67"/>
    <path class="cls-4" d="M240.18,193.3c-1.19.14-7.07,7.44-6.28,13.7.27,2.09,4.38,4.67,5.51,6,4.16,5,13.06-5.63,23.31-5.38,7.55.19-1.88-14.16-3.33-14.34s-3.06,6.11-5.12,5.89-2.52-8.15-4.1-8.19-2.15,6.73-4.61,6.91C243.29,198.08,241.82,193.11,240.18,193.3Z" transform="translate(-15.39 -10.26)"/>
    <path class="cls-1" d="M100.47,447.76c-6.94,4.1-18.72,20.47-12.3,20.55,16.52.19,68-.39,83,.38,8.47.44-17-26.41-25.16-23.62C137.54,448,106.19,444.37,100.47,447.76Z" transform="translate(-15.39 -10.26)"/>
    <polygon class="cls-4" points="110.36 436.88 127.83 437.66 123.3 448.64 110.36 436.88"/>
    <path class="cls-1" d="M105.84,409.34c.13,1-2.23,1.83-5.18-.39-1.54-1.15-4.83-7.42-4.42-14.21.38-6.34,6.86-3.86,7.46-6.11,2.79-10.53,11-19.72,20.53-21.83,31.53-7,56,29.44,49.42,48.09-3.88,10.95-21.43,17.21-36.84,15.05,0,1-.57,3.54.54,6.09,2.23,5.18-29.07,4.17-28-3.26.9-6.51-.61-14.79-.51-14.21" transform="translate(-15.39 -10.26)"/>
    <path class="cls-1" d="M152.59,390.51c5.63,1.8,8.06,6.92,11,12.34,1.87,3.43,2.64,5.68-3.56,4.95-3.8-.44-7.33.9-6.81-2.82" transform="translate(-15.39 -10.26)"/>
    <path class="cls-3" d="M144.39,395.38c0,1.53-.85,2.78-1.91,2.78-.77,0-1.18-.18-1.48-1.12l.9-1.54-1.41-1.15a1.73,1.73,0,0,1,2-1.76C143.54,392.59,144.39,393.84,144.39,395.38Z" transform="translate(-15.39 -10.26)"/>
    <path class="cls-3" d="M166.93,393.46c0,1.53-.86,2.78-1.92,2.78-.76,0-1.17-.17-1.47-1.12l.89-1.53L163,392.43a1.74,1.74,0,0,1,2-1.76C166.07,390.67,166.93,391.92,166.93,393.46Z" transform="translate(-15.39 -10.26)"/>
    <path class="cls-7" d="M139.52,387.18c-3.18-.14-6.28,1.56-6.14,2.31s5,.61,5.57.57c.82,0,4.91-.29,5-1.15C144,388.25,141.71,387.28,139.52,387.18Z" transform="translate(-15.39 -10.26)"/>
    <path class="cls-7" d="M166.93,384.62c-3.19-.14-6.29,1.55-6.15,2.31s5,.61,5.57.57c.83-.05,4.92-.29,5-1.15C171.41,385.69,169.12,384.72,166.93,384.62Z" transform="translate(-15.39 -10.26)"/>
    <path class="cls-4" d="M161.55,417.15c1.23-.16-1.06,3.89-5.38,2.82-2.7-.67-4.4-2.27-3.33-2.56C155.66,416.64,157.71,417.66,161.55,417.15Z" transform="translate(-15.39 -10.26)"/>
    <path class="cls-4" d="M136.58,437.57c-.19-2.68.19-7-.19-7.49s-7.88-.86-10.38-1.53C120.71,427.12,136.72,439.61,136.58,437.57Z" transform="translate(-15.39 -10.26)"/>
    <path class="cls-4" d="M104.88,389c3.5.74-1.53,11.33,4.22,13.47,1.91.71,4.81.75,5.58-1,1.55-3.48-3-2.76-2.18-9.37.66-5.6,14.88-11.13,14.28-14.26s-18.25-15.36-24,.77C100,386.25,100.3,388,104.88,389Z" transform="translate(-15.39 -10.26)"/>
    <path class="cls-1" d="M127.74,365.93a7.25,7.25,0,0,0-2.88-8.46" transform="translate(-15.39 -10.26)"/>
    <path class="cls-1" d="M127.33,365.74a7.22,7.22,0,0,0-7-5.56" transform="translate(-15.39 -10.26)"/>
    <path class="cls-1" d="M129.09,365.73c.68-4.06,3.34-5,9.22-5.38" transform="translate(-15.39 -10.26)"/>
    <path class="cls-5" d="M106.61,433.35c-2.47,3.29-6.91,12.29-5.76,12.68,1.33.44,30.3,13.06,33.42,5.38,2.5-6.15,1.68-7.88,1.54-11.15C135.62,435.85,107.19,432.58,106.61,433.35Z" transform="translate(-15.39 -10.26)"/>
    <path class="cls-5" d="M139.08,435.65c2.47,3.3,7.55,8.38,6.91,9.42-1.54,2.49-4.56,10.76-7.68,3.07-2.5-6.15-3.41-5.76-3.27-9C135.23,434.69,138.5,434.89,139.08,435.65Z" transform="translate(-15.39 -10.26)"/>
    <path class="cls-4" d="M137.08,456.86c-3,1.87-6.48,11.82-5.5,11.64,2.92-.51,19.23.38,20.56-.38s-11.45-11.26-11.63-11.94C140.44,455.89,138.62,455.91,137.08,456.86Z" transform="translate(-15.39 -10.26)"/>
    <path class="cls-5" d="M326.49,444c-1.05,2.65.51,10.72,2.2,17,1.23,4.62,1.25,6.27,1.64,6.26,9.22-.24,25.46-3.73,27.92-10.25,1.68-4.45,4.57-9.16,1-12C352.65,439.66,329.09,437.48,326.49,444Z" transform="translate(-15.39 -10.26)"/>
    <path class="cls-5" d="M376.69,438.54a21.23,21.23,0,0,1-6.17.92c.48,2.31,1.56,11.09,1.75,11.56,2.69,6.34-31.89,9.35-29.39,1.47.75-2.36,3-9.36,2.56-13.31a34.37,34.37,0,0,1-9.73-4.1c-11.88-6.54-17.1-28.46-11.78-45.59,5-16.08,21-23.92,33.81-25.1,14-1.29,29,3.66,36.65,18.2a32.3,32.3,0,0,1,3.68,13.62c.39,7.62,6.75.67,5.51,12.23-1.15,10.76-6.83,7.25-7.81,9.61-4,9.6-5.76,9.09-7.3,11.39" transform="translate(-15.39 -10.26)"/>
    <path class="cls-4" d="M404.35,390.51c-4.86,19.72-7.42-1.28-14.6,21.77-2.29,7.37-3.07-12.29-10.75-15.36-2.28-.91-1.48-6.78,3.58-16.91.51-1-13-7.94-23.31-7.94-11.53,0-18.11,1.46-23.22,0-3.38,4.44-11.12,4.61-17.58.29-6.64-4.45-9.41-12-6.19-16.77,1.63-2.45,4.5-3.73,7.79-3.82-6.87-15.81.08-21.61,22.82-17.09a86.79,86.79,0,0,1,9.07,2.41c.35-2.36,1.27-4.14,3-5,6.51-3.11,35.6,10.24,38.68,25.1.53,2.56,1.11,4.19.36,5.67a4.59,4.59,0,0,1,2.33-.29C413.32,367.21,407.18,379.05,404.35,390.51Z" transform="translate(-15.39 -10.26)"/>
    <path class="cls-2" d="M342.76,396c.06-1.06-3.49-2.93-6.47-3.37-2.69-.39-6.41,1.3-6.35,2,.09,1.08,2.63.65,4.94.65C336.89,395.28,342.72,396.72,342.76,396Z" transform="translate(-15.39 -10.26)"/>
    <path class="cls-2" d="M359.4,422c-.19.59-8.63-.47-8.3-.63a6.24,6.24,0,0,0,.64.14,1.29,1.29,0,0,0-.28-.09.69.69,0,0,0-.36-.05c-.76-.18-2.07-.51-3.34-.89a32.56,32.56,0,0,0-3.93.92c-2.16.81-5.74.81-6.2-.17-.29-.62,3.93-2.21,6.59-2.79l.12,0h0a9.31,9.31,0,0,1,6.32.06C353.44,419.7,359.75,421,359.4,422Z" transform="translate(-15.39 -10.26)"/>
    <path class="cls-2" d="M367.13,395.31c-.08-1.07-3.83-2.48-6.85-2.53-2.72,0-6.19,2.09-6,2.76.22,1.06,4.78-.66,7-.27C363.2,395.61,367.17,396,367.13,395.31Z" transform="translate(-15.39 -10.26)"/>
    <path class="cls-1" d="M349.29,409.47c-2.38.78-5.36,3.61-4.61,5,.59,1.09,4.42,1.32,6.14.77" transform="translate(-15.39 -10.26)"/>
    <path class="cls-4" d="M343.59,450.76c1-2.5.85-4.81,2.17-11.46.07-.32,6.88,1.7,12.2,1.44C364,440.46,342.83,452.66,343.59,450.76Z" transform="translate(-15.39 -10.26)"/>
    <path class="cls-4" d="M361.37,415.8h0a8.7,8.7,0,0,1-8.7-8.69v-5a1.59,1.59,0,0,1,1.59-1.59l13.8.42a1.6,1.6,0,0,1,1.59,1.59v3.72C369.65,411.76,366.88,415.8,361.37,415.8Z" transform="translate(-15.39 -10.26)"/>
    <path class="cls-4" d="M336,415.1h0a8.69,8.69,0,0,1-8.7-8.7v-5a1.6,1.6,0,0,1,1.59-1.6l13.79.43a1.59,1.59,0,0,1,1.59,1.59v3.71C344.23,411.06,341.47,415.1,336,415.1Z" transform="translate(-15.39 -10.26)"/>
    <path class="cls-1" d="M344.13,407.42c1.42-3.78,7.19-3.24,8.36.28" transform="translate(-15.39 -10.26)"/>
    <polygon class="cls-4" points="389.42 409.01 382.69 410.71 384.58 404.03 389.42 409.01"/>
    <path class="cls-5" d="M349.8,446.62a17.81,17.81,0,0,0-6.92,5.87c-.63.76-4.28,5.89-5.38,6.92-5.6,5.26-12.65,8.88-6.65,8.71,8.7-.26,33.8.25,53.78,0,2.36,0-6.9-5.29-6.65-5.95,1.68-4.45,8.4-13.46,4.87-16.34C376.21,440.43,356.28,443.82,349.8,446.62Z" transform="translate(-15.39 -10.26)"/>
    <path class="cls-1" d="M389.5,279.36c-9.05-8-32.3,39.42-27.15,39.44,19.91.09,78.88,0,99.88,0,10.32,0-32.59-40.56-38.6-35.47C415.62,290.11,402.81,291.14,389.5,279.36Z" transform="translate(-15.39 -10.26)"/>
    <polygon class="cls-4" points="382.62 308.22 365.91 308.22 353.62 289.14 359.76 278.32 382.62 308.22"/>
    <polygon class="cls-4" points="432.5 307 420.21 308.03 415.08 274.73 427.89 283.95 432.5 307"/>
    <path class="cls-4" d="M443.92,131.19c-6.85-7-39.21,8.71-48.54,21.52-6,8.3-5.48,39,2.06,52.63,2.05,3.72-4.36,5.12-6.41,4.61-.84-.21-4.73-19.33-10-17.16-16.39,6.79-17.16-28.43-17.67-45.08-.26-8.44-3.41-23,.29-30.16a15.72,15.72,0,0,1-.42-3.64c0-5.74,2.93-10.38,6.54-10.38a4.2,4.2,0,0,1,1.61.32c.49-5,3.19-8.77,6.45-8.77a4.71,4.71,0,0,1,3.09,1.23c.23-5.41,3.06-9.69,6.52-9.69,2,0,3.85,1.48,5.05,3.8q.18.38.36.78c0-.37.07-.74.13-1.1.65-4.62,3.26-8.08,6.37-8.08a5.35,5.35,0,0,1,4.22,2.46,9.51,9.51,0,0,1,1,1.71,13.49,13.49,0,0,1,.63-2.41c1.12-3.11,3.24-5.22,5.67-5.22a5.11,5.11,0,0,1,3.77,1.9c.66-.2,1.34-.38,2-.56,1.18-2.67,3.13-4.42,5.34-4.42a5.34,5.34,0,0,1,4.18,2.39c.08.1.15.21.23.32,0-.13.1-.25.15-.38,1.16-2.79,3.17-4.63,5.43-4.63,1.94,0,3.68,1.34,4.86,3.46.09.14.16.28.24.43a3.74,3.74,0,0,1,.22-.45c1.18-2.33,3-3.82,5.05-3.82,1.83,0,3.48,1.19,4.67,3.1a4.32,4.32,0,0,0-.51.45h.76c-.08-.16-.17-.31-.25-.45,2.22-1.92,4.75-2.65,6.75-1.69A4.87,4.87,0,0,1,456.2,77C462.68,83.25,461.21,148.86,443.92,131.19Z" transform="translate(-15.39 -10.26)"/>
    <path class="cls-4" d="M392.5,90.42l.49-.32c-.06.36-.1.73-.13,1.1Q392.68,90.8,392.5,90.42Z" transform="translate(-15.39 -10.26)"/>
    <path class="cls-4" d="M403.58,84.48c.54-.24,1.08-.48,1.64-.7a13.49,13.49,0,0,0-.63,2.41A9.51,9.51,0,0,0,403.58,84.48Z" transform="translate(-15.39 -10.26)"/>
    <path class="cls-4" d="M426.2,77.87l.38-.06c-.05.13-.11.25-.15.38C426.35,78.08,426.28,78,426.2,77.87Z" transform="translate(-15.39 -10.26)"/>
    <path class="cls-4" d="M437.33,76.62a3.74,3.74,0,0,0-.22.45c-.08-.15-.15-.29-.24-.43Z" transform="translate(-15.39 -10.26)"/>
    <path class="cls-4" d="M447.3,76.35h-.76a4.32,4.32,0,0,1,.51-.45C447.13,76,447.22,76.19,447.3,76.35Z" transform="translate(-15.39 -10.26)"/>
    <path class="cls-4" d="M447.3,76.35h-.76a4.32,4.32,0,0,1,.51-.45C447.13,76,447.22,76.19,447.3,76.35Z" transform="translate(-15.39 -10.26)"/>
    <path class="cls-5" d="M416.45,318.1c-8.52-18.74-11.66-26.88-8.13-29.52,1.86-1.39,2.95-1.8,8.52-1" transform="translate(-15.39 -10.26)"/>
    <line class="cls-5" x1="395.11" y1="281.33" x2="398.18" y2="282.09"/>
    <line class="cls-5" x1="402.6" y1="302.46" x2="405.48" y2="302.84"/>
    <path class="cls-1" d="M376.25,215.15c-.45,4.26-.47,3.83,1.26,4s2.15-4.56,2.35-4.87" transform="translate(-15.39 -10.26)"/>
    <path class="cls-1" d="M388.72,245.68c2.91,24.11,1.25,19.44-.15,29.62-1.58,11.59,31.16,17.79,35.06,8,.73-1.83-.92-8.65-1.49-17.81A25.6,25.6,0,0,0,436,267.07c23.19-4.41,32.33-47.1,30.74-74.8-1.32-23.18-11.33-63.18-30.21-62.49-31.12,1.15-50.31,25.78-53.95,56.06-.27,2.28-.46,4.6-.56,6.94-.16,4-10.71-1.92-7.35,16.78,1.79,10,8.68,3.68,9.6,7.82" transform="translate(-15.39 -10.26)"/>
    <path class="cls-4" d="M422.79,277c-1-2.51-.19-5.76-.38-11.14,0-.33-4.42-1.16-8.07-3.27C409.1,259.55,423.55,278.89,422.79,277Z" transform="translate(-15.39 -10.26)"/>
    <path d="M436.69,238.92a16.54,16.54,0,0,0,12,.71c2.28-.65,4.36-1.24,4.45-2.17.25-2.48-11.94,2.28-18.48-3.14C430.7,231,434,237.86,436.69,238.92Z" transform="translate(-15.39 -10.26)"/>
    <path class="cls-3" d="M436.62,203.08c0,2.43-1.35,4.4-3,4.4-1.21,0-1.86-.28-2.34-1.77l1.42-2.43-2.23-1.83c.15-2.22,1.58-2.78,3.15-2.78S436.62,200.64,436.62,203.08Z" transform="translate(-15.39 -10.26)"/>
    <path class="cls-3" d="M463.51,203.08c0,2.43-1.35,4.4-3,4.4-1.21,0-1.86-.28-2.34-1.77l1.42-2.43-2.23-1.83c.16-2.22,1.58-2.78,3.15-2.78S463.51,200.64,463.51,203.08Z" transform="translate(-15.39 -10.26)"/>
    <path class="cls-7" d="M460.55,179.05c5.18-.91,10.7,2.68,10.67,4.53,0,2.22-8,2.37-9,2.39-1.36,0-8.13.15-8.48-1.93C453.5,182.45,457,179.68,460.55,179.05Z" transform="translate(-15.39 -10.26)"/>
    <path class="cls-7" d="M428.28,179.69c5.18-.91,10.7,2.68,10.67,4.53-.05,2.22-8,2.37-9,2.39-1.36,0-8.13.15-8.48-1.93C421.23,183.09,424.72,180.32,428.28,179.69Z" transform="translate(-15.39 -10.26)"/>
    <path class="cls-1" d="M447.31,209.76c6,3.07,9.62,6.13,6.73,11-1.54,2.56-7.85.87-8.2.76" transform="translate(-15.39 -10.26)"/>
    <path class="cls-4" d="M563.4,133.11c-9.54,3-17.84,9-15.56,9.22,14,1.35,57-1.92,78.95.39,2.76.29-18.15-10-21.9-9.61C588.76,134.65,576.66,128.94,563.4,133.11Z" transform="translate(-15.39 -10.26)"/>
    <ellipse class="cls-4" cx="591.68" cy="66.25" rx="18.06" ry="16.9"/>
    <ellipse class="cls-4" cx="535.59" cy="33.47" rx="18.06" ry="16.9"/>
    <ellipse class="cls-4" cx="596.54" cy="90.84" rx="18.06" ry="16.9"/>
    <path class="cls-4" d="M582.74,54.74c-16.86-13.59-56.45-8-25-36.88,9.22-8.45,24.44-5.51,40,9.6C607.93,37.41,619,50,618.47,62.17,618,73.22,599.6,68.33,582.74,54.74Z" transform="translate(-15.39 -10.26)"/>
    <path class="cls-5" d="M597.59,104.59c-.9,6.4-1.15,12.13-.64,15.2.84,5-25.51,6.62-23.82,1.54a43.3,43.3,0,0,0,1-7.43h0c-15.79,2-24.59-3.84-27.9-26.69C544,71.3,550.51,53,564.54,48.55c15.51-4.9,34.92,8.66,38.39,26,.36,1.8,6,.42,6.38,5.4a15.53,15.53,0,0,1-2.88,10.76c-2.56,3.91-5.29,2.21-5.77,3.28-.75,1.69-1.49,3.06-1.53,3.19" transform="translate(-15.39 -10.26)"/>
    <path class="cls-2" d="M582.37,68.47c.14-.83-5.41-4.64-9.34-3.12-.35.13-2.68.36-2.61.89.12.82,3.4,1.19,6.12,1.05C578.16,67.2,582.28,69,582.37,68.47Z" transform="translate(-15.39 -10.26)"/>
    <path class="cls-2" d="M555.39,66.88c0-.83-6-3.8-9.7-1.72-.32.19-2.59.75-2.45,1.26.24.8,3.54.69,6.21.15C551,66.25,555.38,67.43,555.39,66.88Z" transform="translate(-15.39 -10.26)"/>
    <ellipse class="cls-3" cx="558.25" cy="68.68" rx="1.66" ry="2.43"/>
    <path class="cls-1" d="M561.29,84.13c-2.38.78-5.36,3.62-4.61,5,.59,1.1,4.42,1.33,6.15.77" transform="translate(-15.39 -10.26)"/>
    <path class="cls-1" d="M556.87,78.79c2.54-3.93,5.37-4.81,9.6,1.31" transform="translate(-15.39 -10.26)"/>
    <path class="cls-6" d="M568.46,96.68c2.69-.38,2.21.65,2.11.7-5.84,3.37-9.76,4.58-12.08,2.79-1.52-1.17-.82-1.92-.47-2.79a.77.77,0,0,1,.3-.33c-1.17-.25-2-.6-2.08-1-.18-.93-.73-1.79,1-2.66,2.6-1.31,5.23-1.27,10.32,3.14C567.69,96.6,568.58,96.6,568.46,96.68Z" transform="translate(-15.39 -10.26)"/>
    <path class="cls-4" d="M573.65,121.84c.16-2.68.64-7.4.38-7.68-.47-.5,7.29-.53,9.86-.26C588.76,114.42,573.52,123.88,573.65,121.84Z" transform="translate(-15.39 -10.26)"/>
    <path class="cls-4" d="M573.77,89.32a8.19,8.19,0,0,1-8.26-7.89v-5c1.73-6.73,8.84-6.15,8.84-6.15,6.15,1.54,7.88,2.88,8.14,6.57l-.26,4.38C582.23,86.76,579.28,89.32,573.77,89.32Z" transform="translate(-15.39 -10.26)"/>
    <path class="cls-4" d="M549.19,89.32a8.19,8.19,0,0,1-8.26-7.89v-5c1.73-6.73,8.83-6.15,8.83-6.15,6.15,1.54,7.88,2.88,8.14,6.57l-.26,4.38C557.64,86.76,554.69,89.32,549.19,89.32Z" transform="translate(-15.39 -10.26)"/>
    <path class="cls-4" d="M603.1,73.44c-3.59,4.86-9.73,17.67-11.27,16.39-2.66-2.22,8.94-16,0-17.42-4.91-.78-7.32-14.44-1-19.21C593.57,51.11,608.47,66.15,603.1,73.44Z" transform="translate(-15.39 -10.26)"/>
    <ellipse class="cls-4" cx="587.39" cy="79.76" rx="0.19" ry="0.32"/>
    <path class="cls-5" d="M572.11,123.38c-6.92-1.54-10.25,7.17-5.89,9.72,11.54,6.75,18.95,3.86,32.27.51,4.56-1.14,2.36-14.51-1.79-12.53C581.07,128.5,575.15,124.06,572.11,123.38Z" transform="translate(-15.39 -10.26)"/>
    <ellipse class="cls-5" cx="586.65" cy="118.69" rx="4.58" ry="5.06"/>
    <path class="cls-5" d="M615.39,127.73c0,1.56-3.07,8.46-6.53,9-2.87.42-5.31-3.38-5.31-4.93s2.41-.71,5.31-.71S615.39,126.18,615.39,127.73Z" transform="translate(-15.39 -10.26)"/>
    <path class="cls-5" d="M604.89,136.19c0,2.12,1.51,5.12.52,5.12s-6.15-1.64-6.15-5.12c0-5,2.85-3.85,3.84-3.85S604.89,134.06,604.89,136.19Z" transform="translate(-15.39 -10.26)"/>
    <path class="cls-9" d="M282.66,79.62c0,11.72,4.48,21.22-.67,21.22s-20.55,1.54-20.55-10.18,6.76-32.27,11.91-32.27S282.66,67.89,282.66,79.62Z" transform="translate(-15.39 -10.26)"/>
    <path class="cls-9" d="M323.17,81.34c0,11.73-4.47,21.23.67,21.23s20.56,1.54,20.56-10.18S335.09,53.08,330,53.08,323.17,69.62,323.17,81.34Z" transform="translate(-15.39 -10.26)"/>
    <path class="cls-4" d="M316.25,119.79c10.47,3.74,29.34,21.19,22.53,21.77-23.81,2.05-62.23-1.05-73.76-.25-7.43.51,13.2-16.16,22.28-20C291.33,119.64,302.84,115,316.25,119.79Z" transform="translate(-15.39 -10.26)"/>
    <path class="cls-10" d="M336.74,89.06c-.87,3.41-5.52,4.18-5.64,4.35-3.84,5.9-8.51,7.83-16.3,10.83l-1,5.18c0,1.63,0,1.44-.09,1.73.48,5.15-17.73,7.39-19.59,2.21-.45-1.23,1-7.06.32-7.24-.3-.07-3.73-.57-4-.65-18.94-4.76-24.34-23.27-16.07-34.93.34-.48,8.61-14.27,29.26-12.54,14.76,1.22,27.13,10.41,29.22,21.51a5.47,5.47,0,0,1,.8.19C337.21,80.78,338.41,82.44,336.74,89.06Z" transform="translate(-15.39 -10.26)"/>
    <path d="M296,99.64c-1,.82-1.24,1.38-3.54.56-.92-.32-1.61-1-1.63-1.52-.06-1.39,2.95,1.59,5.68-1.53C298.15,95.26,297,98.76,296,99.64Z" transform="translate(-15.39 -10.26)"/>
    <path class="cls-3" d="M281.93,82.4c0,1.34-.75,2.43-1.67,2.43s-1.66-1.09-1.66-2.43.74-2.43,1.66-2.43S281.93,81.06,281.93,82.4Z" transform="translate(-15.39 -10.26)"/>
    <ellipse class="cls-3" cx="288.18" cy="72.14" rx="1.66" ry="2.43"/>
    <ellipse class="cls-1" cx="263.59" cy="69.87" rx="10.63" ry="9.96"/>
    <ellipse class="cls-1" cx="289.84" cy="70.82" rx="11.53" ry="10.8"/>
    <path class="cls-1" d="M291.21,87.59c-2.38.78-3.24,3.23-2.5,4.61a3.44,3.44,0,0,0,4,1.15" transform="translate(-15.39 -10.26)"/>
    <path class="cls-1" d="M289.48,81.82c1.12-1.72,2.36-2.11,4.23.58" transform="translate(-15.39 -10.26)"/>
    <polygon class="cls-4" points="279.08 101.91 289.65 95.77 278.89 95.77 279.08 101.91"/>
    <path class="cls-2" d="M310,79c0-.68-3-4.21-7-3.78-3.65.38-6.14,3.23-6,3.65.19.65,4.24-2.35,6.47-2.18C305.81,76.89,310,79.45,310,79Z" transform="translate(-15.39 -10.26)"/>
    <path class="cls-2" d="M285.77,78.69c.06-.67-2.53-3.3-5-3.55-2.26-.23-5.77,2.35-5.73,2.78.07.67,4.54-1.8,5.89-1.26S285.73,79.12,285.77,78.69Z" transform="translate(-15.39 -10.26)"/>
    <path class="cls-9" d="M303.5,46.67c-20.74-11.52-30,3.08-35.15,11.91-4.47,7.62-10.11,30.12-5,34,1.48,1.12,5.15,1.79,5.18.19.2-8.83,2.31-20,5-21.32,7.12-3.56,10.95-4.42,13.64-4.8,5.09-.73,5.57-7.88,9.22-8.45,2-.32-3,8.08,3.65,8.83,11.91,1.35,22.19,3.21,24.2,9.42,1.46,4.51-2.66,8.28.06,10.18a1.42,1.42,0,0,0,1.92-.26c4-4.87,6.15-6.66,7.94-5.89.93.4,2.43-3.12,2.95-4,1.54-2.69,1.34-4.61.19-10C335.34,57.25,325.21,35,303.5,46.67Z" transform="translate(-15.39 -10.26)"/>
    <path class="cls-1" d="M303.18,49.49c-.65-6.4-1.55-8.31-2.17-9.86" transform="translate(-15.39 -10.26)"/>
    <path class="cls-1" d="M303.31,51a37.26,37.26,0,0,1,2.18-9.86" transform="translate(-15.39 -10.26)"/>
    <ellipse class="cls-11" cx="317.57" cy="78.67" rx="0.19" ry="0.26"/>
    <path class="cls-5" d="M291.15,112.62c2.43.28,6.63,1.35,7.17,3.33.69,2.53-1.54,6.15-4.1,11.27-1.58,3.16-9.15.91-10.24-2.56C282.63,120.4,287.61,112.22,291.15,112.62Z" transform="translate(-15.39 -10.26)"/>
    <path class="cls-5" d="M313.17,111.85c-4.86,1.8-11.52,2.31-13.83,5.64-1.09,1.57.94,9.26,3.08,10.76,4.36,3.06,17.43-1.33,17.41-7.43C319.83,118,315.73,110.91,313.17,111.85Z" transform="translate(-15.39 -10.26)"/>
  </g>
</svg>
