
<svg
   width="27"
   height="27"
   viewBox="0 0 26.458333 26.458334"
   version="1.1"
   id="svg5">
    <path
       id="path1041"
       style="fill:#000000;fill-opacity:1;stroke:#000000;stroke-width:0.47851;stroke-linecap:round;stroke-linejoin:round;stroke-miterlimit:4;stroke-dasharray:none;stroke-opacity:1"
       d="M 15.823842,9.9818197 C 14.452543,9.9693096 11.24356,10.945267 9.8955213,12.293306 8.2676988,13.921128 7.182505,18.26193 7.7251099,18.804537 c 0.09326,0.09326 0.2988177,0.138457 0.5834274,0.141076 1.3712957,0.01251 4.5797627,-0.963447 5.9278047,-2.311486 1.627819,-1.62782 2.713019,-5.968623 2.170408,-6.511231 -0.09326,-0.09326 -0.298301,-0.1384765 -0.582908,-0.1410763 z M 12.06593,13.023494 a 1.4401874,1.4401874 0 0 1 1.440222,1.440223 1.4401874,1.4401874 0 0 1 -1.440222,1.439705 1.4401874,1.4401874 0 0 1 -1.440222,-1.439705 1.4401874,1.4401874 0 0 1 1.440222,-1.440223 z" />
    <path
       id="path4557"
       style="fill:none;stroke:#000000;stroke-width:1.5875;stroke-linecap:round;stroke-linejoin:round;stroke-miterlimit:4;stroke-dasharray:none"
       d="m 22.285848,14.392263 c 0,0.291462 -0.0122,0.580075 -0.03612,0.865354 m -0.653351,2.832389 c -0.476882,1.228216 -1.184346,2.341371 -2.069247,3.286321 m -2.771534,2.098653 c -1.404507,0.726637 -2.999084,1.137061 -4.689523,1.137061 -5.6442276,0 -10.2197782,-4.57555 -10.2197776,-10.219778 2e-7,-5.6442271 4.5755505,-10.2197767 10.2197776,-10.2197767 3.990503,0 7.446818,2.2871238 9.129612,5.6220333 0.274817,0.5446254 0.502342,1.1171944 0.677154,1.7123134" />
    <path
       style="fill:none;stroke:#000000;stroke-width:1.58750001;stroke-linecap:round;stroke-linejoin:round;stroke-miterlimit:4;stroke-dasharray:none;stroke-opacity:1"
       d="m 19.232953,4.8364192 -1.19448,1.1944805 c 1.43298,1.3652281 1.476434,1.1695064 2.38896,2.3889611 l 1.194481,-1.1944806 c 0,-1.1944805 -1.194481,-2.388961 -2.388961,-2.388961 z"
       id="path4923" />
    <path
       style="fill:none;stroke:#000000;stroke-width:1.58750001;stroke-linecap:butt;stroke-linejoin:round;stroke-miterlimit:4;stroke-dasharray:none;stroke-opacity:1"
       d="m 19.232954,4.8364191 c 1.194479,0 2.38896,1.1944806 2.38896,2.3889611 l 1.19448,1.1944804 c 1.194481,1.1944806 2.319023,-1.8052772 2.388962,-2.3889609 -0.06994,-2.0621497 -2.715773,-4.707983 -4.777923,-4.777922 -0.583683,0.069939 -3.583441,1.1944804 -2.38896,2.3889609 z"
       id="path6234" />
</svg>
