
<svg
   width="100"
   height="100"
   viewBox="0 0 26.458333 26.458334"
   version="1.1"
   >
    <path
       id="path859"
       style="fill:#000000;fill-opacity:1;stroke:#000000;stroke-width:1.80854;stroke-linecap:round;stroke-linejoin:round;stroke-miterlimit:4;stroke-dasharray:none;stroke-opacity:1"
       d="M 59.806641 37.457031 C 54.623786 37.409764 42.495341 41.098405 37.400391 46.193359 C 31.247993 52.345754 27.14647 68.751936 29.197266 70.802734 C 29.549748 71.155209 30.326654 71.326039 31.402344 71.335938 C 36.585194 71.383204 48.71169 67.69456 53.806641 62.599609 C 59.959035 56.447219 64.060568 40.041036 62.009766 37.990234 C 61.657283 37.637749 60.882324 37.466858 59.806641 37.457031 z M 45.603516 49.222656 A -5.1734526 5.1734526 0 0 1 50.777344 54.396484 A -5.1734526 5.1734526 0 0 1 45.603516 59.570312 A -5.1734526 5.1734526 0 0 1 40.429688 54.396484 A -5.1734526 5.1734526 0 0 1 45.603516 49.222656 z "
       transform="scale(0.26458333)" />
    <path
       id="path4557"
       style="fill:none;stroke:#000000;stroke-width:1.5875;stroke-linecap:round;stroke-linejoin:round;stroke-miterlimit:4;stroke-dasharray:none"
       d="m 22.285848,14.392263 c 0,0.291462 -0.0122,0.580075 -0.03612,0.865354 m -0.653351,2.832389 c -0.476882,1.228216 -1.184346,2.341371 -2.069247,3.286321 m -2.771534,2.098653 c -1.404507,0.726637 -2.999084,1.137061 -4.689523,1.137061 -5.6442276,0 -10.2197782,-4.57555 -10.2197776,-10.219778 2e-7,-5.6442271 4.5755505,-10.2197767 10.2197776,-10.2197767 3.990503,0 7.446818,2.2871238 9.129612,5.6220333 0.274817,0.5446254 0.502342,1.1171944 0.677154,1.7123134" />
    <path
       style="fill:none;stroke:#000000;stroke-width:1.58750001;stroke-linecap:round;stroke-linejoin:round;stroke-miterlimit:4;stroke-dasharray:none;stroke-opacity:1"
       d="m 19.232953,4.8364192 -1.19448,1.1944805 c 1.43298,1.3652281 1.476434,1.1695064 2.38896,2.3889611 l 1.194481,-1.1944806 c 0,-1.1944805 -1.194481,-2.388961 -2.388961,-2.388961 z"
       id="path4923" />
    <path
       style="fill:none;stroke:#000000;stroke-width:1.58750001;stroke-linecap:butt;stroke-linejoin:round;stroke-miterlimit:4;stroke-dasharray:none;stroke-opacity:1"
       d="m 19.232954,4.8364191 c 1.194479,0 2.38896,1.1944806 2.38896,2.3889611 l 1.19448,1.1944804 c 1.194481,1.1944806 2.319023,-1.8052772 2.388962,-2.3889609 -0.06994,-2.0621497 -2.715773,-4.707983 -4.777923,-4.777922 -0.583683,0.069939 -3.583441,1.1944804 -2.38896,2.3889609 z"
       id="path6234" />
  
</svg>
