<svg id="Layer_1" data-name="Layer 1" xmlns="http://www.w3.org/2000/svg" width="571.96" height="576.6" viewBox="0 0 571.96 576.6">
  <defs>
    <style>
      .cls-1, .cls-10, .cls-11, .cls-12, .cls-2, .cls-3, .cls-4, .cls-5, .cls-6, .cls-7, .cls-8, .cls-9 {
        stroke: #000;
      }

      .cls-1, .cls-7 {
        stroke-miterlimit: 10;
      }

      .cls-1, .cls-10, .cls-6, .cls-9 {
        stroke-width: 5px;
      }

      .cls-2, .cls-6 {
        fill: #fff;
      }

      .cls-10, .cls-11, .cls-12, .cls-2, .cls-3, .cls-4, .cls-5, .cls-6, .cls-8, .cls-9 {
        stroke-linecap: round;
        stroke-linejoin: round;
      }

      .cls-12, .cls-2, .cls-3 {
        stroke-width: 7px;
      }

      .cls-3, .cls-8, .cls-9 {
        fill: none;
      }

      .cls-4 {
        stroke-width: 0.25px;
      }

      .cls-5 {
        stroke-width: 4px;
      }

      .cls-7, .cls-8 {
        stroke-width: 3px;
      }
    </style>
  </defs>
  <ellipse class="cls-1" cx="308.35" cy="288" rx="14.87" ry="18" transform="translate(-118.58 387.51) rotate(-66.09)"/>
  <g>
    <path class="cls-2" d="M466.77,331.05l-182.26-1.7-83.3-30,82.84-29.92,184.15-.09c20.46,1.08,46.08-6.5,47.41,22.39v15.75C515.59,327.13,505,333.28,466.77,331.05Z" transform="translate(-38.68 -65.67)"/>
    <polyline class="cls-3" points="245.37 203.81 261.89 218.77 251.04 235.99 264.74 245.71 245.83 263.68"/>
    <line class="cls-3" x1="264.74" y1="245.71" x2="412.78" y2="246.39"/>
    <line class="cls-3" x1="261.89" y1="218.77" x2="412.42" y2="220.4"/>
    <rect class="cls-4" x="448.77" y="271.41" width="9.37" height="57.39" transform="translate(-38.15 -66.46) rotate(0.1)"/>
    <rect class="cls-4" x="463.57" y="271.53" width="9.37" height="57.39" transform="translate(-38.15 -66.49) rotate(0.1)"/>
    <path class="cls-5" d="M201.21,299.39l24.89-9.55s7.11,4.91,1.5,19.3Z" transform="translate(-38.68 -65.67)"/>
  </g>
  <path class="cls-6" d="M247.3,468.78c2.79,20.31,22.33,11,24.7,10.13,4.51-1.63,6.83-12.57,6.35-16.91-1.05-9.39-17.21-26.68-23.22-19C253,445.7,247.2,468,247.3,468.78Z" transform="translate(-38.68 -65.67)"/>
  <path class="cls-6" d="M432.78,331.57c-8.44,42.34-10.59,45.26-29.74,45.26-13.3,0-26.08-.76-26.08-.92.52,26.09,2.08,47.48,3.71,66.57-.62,6.86.46,16.13-14.41,18.48l-20.35,3.91c-36,3.13-51.65-10.43-50.87-18.78,3.75-39.89,11.93-60.2,11.74-61.83-.71-6-19,10.07-26.61,60.26-2.52,16.69-28.47,15.41-27.39.78,1.57-21.13,3.07-30.55,18-67.3,11.92-29.32,8.61-35,45.32-45.91,0,0,.3-.83,1.95-1.36a5.19,5.19,0,0,1,.86-3c4.83-7.89-6.09-30.34-6.75-38.15-4.63-8.6-7.46-17.81-7.46-26.23,0-26.14,17.14-34.82,34.51-34.82s29.32,7.25,33.91,33c3.84,21.53,6,60.57-17.55,61.19a27,27,0,0,1-7.71-1c-.67,2.27.47,5.35,1.73,8.19a3,3,0,0,1,2.32.07s12,4.17,25,7.3c26.17,6.29,27.13-6.78,27.13-6.78A63,63,0,0,1,432.78,331.57Z" transform="translate(-38.68 -65.67)"/>
  <path class="cls-7" d="M348.46,261c0,.66-3.83,1.19-8.55,1.19s-10.69,3-10.69,2.32,6-4.69,10.69-4.69S348.46,260.36,348.46,261Z" transform="translate(-38.68 -65.67)"/>
  <path class="cls-7" d="M360.72,260.06c.12.65,4,.48,8.62-.37s11.06,1,10.94.36-6.73-3.54-11.37-2.69S360.6,259.42,360.72,260.06Z" transform="translate(-38.68 -65.67)"/>
  <ellipse class="cls-7" cx="304.04" cy="207.89" rx="1.37" ry="2.71"/>
  <ellipse class="cls-7" cx="328.1" cy="205.93" rx="1.37" ry="2.71"/>
  <path class="cls-8" d="M356.22,288.28a5,5,0,0,0,6.92,1.15c2.49-1.89,1.9-5.73.38-7.3-1.35-1.4-3-.59-4.61-1.54-1.81-1.1-3-4.36-1.53-13.06" transform="translate(-38.68 -65.67)"/>
  <path class="cls-1" d="M352.19,234.71a4.79,4.79,0,0,1-4.84,0,11.74,11.74,0,0,1-2-1.43A67.28,67.28,0,0,1,352.19,234.71Z" transform="translate(-38.68 -65.67)"/>
  <path class="cls-1" d="M381.3,228.85c2.94,3.91,4.07,7.31,2.44,9.32-9.35,11.48-10.1,7.82-28.83,2.87-2.07-.55-6.13-2.35-8.61-2.74-.61-.1-2.17-5.2-2.82-5.28a19.89,19.89,0,0,1-5.32,12.78c-5.68,6.28-14,8.3-20.13,5.37a9.93,9.93,0,0,0-1.07,3.7c0,15.12,6.26,23,6.26,23-5.51,3.93,0-6-11-14.09-2.92-2.15-3.54,20.14-4.17,17.22-2.12,1,5.71,13.56,3.13,13.56-3.61,0-7.78-3.38-11.33-7.77-7.22,3-16.24-1.3-20.51-9.87-2.81-5.65-2.88-11.82-.66-16.5A13.66,13.66,0,0,1,275.57,249c1.37-6.82,8.19-11.4,16.16-11.46.75-2.48,2-4,3.84-4,.39,0,2.82-3.06,6.59-7.22,5.68-6.28,14.4-15.07,23.76-19.66a32.07,32.07,0,0,1,6.17-2.34c3.91-1,8.58-.59,13.5.79,5.74-2.86,3-1.5,8.93-4.31,14.09-6.65,19.57-1.57,18,5.48C391.14,210.2,391.3,216.78,381.3,228.85Z" transform="translate(-38.68 -65.67)"/>
  <path class="cls-6" d="M281.22,209c-5,14.11,2.55,30.9,6.26,26.61,9.78-11.35,40.43-36.53,61.17-31.83,5.87,1.33-6.65-27.13-12.91-30.13C314.29,163.33,289,187,281.22,209Z" transform="translate(-38.68 -65.67)"/>
  <path class="cls-6" d="M360.52,190.7c2.46-12-35.22-2.09-44.09,3.13-11.46,6.74-14.52,22.08-4.95,19.82,13.38-3.15,24-10,33.91-11.48S358.54,200.33,360.52,190.7Z" transform="translate(-38.68 -65.67)"/>
  <path class="cls-9" d="M317.48,332.61c9.91,9.39,16.17,18.78,26.09,18.78,9.39,0,10.43-12.52,6-21.46" transform="translate(-38.68 -65.67)"/>
  <path class="cls-6" d="M413.48,269.48c1.2,4.93,8.54,7.65,16.22,8.23a42.09,42.09,0,0,0,5.14.07,29.38,29.38,0,0,0,8.38-1.52c4.5-1.63,7.41-5.59,6.78-9.91-1.2-8.22-28.95-11.81-35-4.18A9.7,9.7,0,0,0,413.48,269.48Z" transform="translate(-38.68 -65.67)"/>
  <ellipse class="cls-6" cx="370.63" cy="199.38" rx="4.17" ry="4.43"/>
  <path class="cls-6" d="M283.57,457.57c0,2.44,2.08,7.56-2.61,10.69-4.1,2.73-5.74-8.25-5.74-10.69a4.18,4.18,0,1,1,8.35,0Z" transform="translate(-38.68 -65.67)"/>
  <path class="cls-6" d="M356.09,594.78c.78,13.31,2.27,24.42,3.13,32.09,1.56,14.09,32.08,15.65,39.91,9.39C403,633.17,405.41,613.37,389,612c-9.39-.78-13.31,18.78-21.13-18C366.43,587.46,355.62,586.82,356.09,594.78Z" transform="translate(-38.68 -65.67)"/>
  <path class="cls-6" d="M288.27,593.22c-.78,13.3-2.28,24.41-3.13,32.08-1.56,14.09-32.08,15.66-39.91,9.4-3.87-3.1-9.68-22.11,6.77-23.48,9.39-.79,18,11.74,24.53-18.79C277.93,585.9,288.74,585.26,288.27,593.22Z" transform="translate(-38.68 -65.67)"/>
  <path class="cls-10" d="M295,448.43C291.91,450.52,257,595,257,595c9.54,10.31,25,15.66,45.91,8.87,0,0,25.54-94,28.17-93.65s7.83,91.57,7.83,91.57c11.26,8,43.4,8.22,43.83-6.26.82-28.13-2.61-145.57-2.61-145.57C323.74,483.39,295,448.43,295,448.43Z" transform="translate(-38.68 -65.67)"/>
  <path class="cls-11" d="M368.22,299.15c0,2-3.18,4.28-9.88,4.28s-8.32-1.94-8.32-3.89,1.81-.41,8.51-.41S368.22,297.21,368.22,299.15Z" transform="translate(-38.68 -65.67)"/>
  <path class="cls-11" d="M155.54,145.82l-2.71-7.37a3,3,0,0,0-2.64-.87l-4.62,3.49a3,3,0,0,1-3.13-4.34L144,128.9a3,3,0,0,0,0-2.77l-2.14-7.56a3,3,0,0,1,3.16-4.31l5,3.2a3,3,0,0,0,2.91-1.15L160.59,106a2.87,2.87,0,0,1,2.61-.82,2.9,2.9,0,0,1,2.19,3.36l-1.74,10.81a3,3,0,0,0,1.69,3.17l8.79,4.08a3.2,3.2,0,0,1,1,4.91,2.77,2.77,0,0,1-1.82.92l-7.86,1a3,3,0,0,0-2.59,2.52l-2.27,8.31A3,3,0,0,1,155.54,145.82Z" transform="translate(-38.68 -65.67)"/>
  <path class="cls-11" d="M502.27,228l2.71-7.38a3,3,0,0,1,2.64-.87l9.82,3.07a3,3,0,0,0,3.13-4.34L514.43,208c-.46-.86.57-2.39,1-3.26l2.15-7.56a3,3,0,0,0-3.17-4.31l-6,6.13a3,3,0,0,1-2.9-1.15l-8.31-9.73a2.85,2.85,0,0,0-2.6-.81,2.9,2.9,0,0,0-2.2,3.35l1.74,10.81a3,3,0,0,1-1.69,3.18l-8.79,4.07a3.21,3.21,0,0,0-1,4.92,2.81,2.81,0,0,0,1.82.92l7.86.94a3,3,0,0,1,2.59,2.52l2.27,8.31A3,3,0,0,0,502.27,228Z" transform="translate(-38.68 -65.67)"/>
  <path class="cls-11" d="M596.71,446.12l-6.4-4.57a3,3,0,0,1-.14-2.77l5.56-8.66a3,3,0,0,0-3.36-4.16l-11.68,3.14c-1,.21-2.16-1.18-2.88-1.84l-6.72-4.08a3,3,0,0,0-5,1.91l4.32,7.41a3,3,0,0,1-1.89,2.5L557,440.43a2.85,2.85,0,0,0-1.48,2.29,2.9,2.9,0,0,0,2.65,3L569,446.92a3,3,0,0,1,2.62,2.47l1.6,9.55a3.2,3.2,0,0,0,4.46,2.31,2.78,2.78,0,0,0,1.37-1.51l3-7.33a3,3,0,0,1,3.11-1.83h8.62A3,3,0,0,0,596.71,446.12Z" transform="translate(-38.68 -65.67)"/>
  <path class="cls-11" d="M283.3,110.09l4.12-10.77a3,3,0,0,1,2.63-.87l7.61,3.19a3,3,0,0,0,3.12-4.34l-4.48-7.53a3,3,0,0,1,0-2.77l2.15-7.56a3,3,0,0,0-3.16-4.31l-10.66,4.7a3,3,0,0,1-2.91-1.16L274,68.35a2.86,2.86,0,0,0-2.6-.82,2.92,2.92,0,0,0-2.2,3.36L271,81.7c.21,1.32-.77,4-2,4.58l-3.16,2.58a3.21,3.21,0,0,0-1,4.92,2.79,2.79,0,0,0,1.82.92l8.14-.46a3,3,0,0,1,2.59,2.51l.87,11.71A3,3,0,0,0,283.3,110.09Z" transform="translate(-38.68 -65.67)"/>
  <path class="cls-3" d="M174.52,225.39c-.4-9.79-2.68-14.85-10.22-16.07-9.6-1.55-10.42,11.47-9.34,20.77,1.21,10.47,8.82,10.55,17.17,11.58,12.45,1.54,18-6.94,17.85-20.89-.1-14.21-12.93-21.58-24.87-24.05-14.16-2.94-20.28,8.08-24.36,17-6.25,13.58.12,30.69,15.09,44.16" transform="translate(-38.68 -65.67)"/>
  <path class="cls-3" d="M370,104.77c8.32,5.16,13.79,6.13,19,.58,6.67-7.07-3.64-15.07-11.93-19.4-9.34-4.89-13.68,1.36-19.23,7.69-8.27,9.43-4.35,18.74,7.24,26.51,11.81,7.9,25.11,1.43,33.87-7.05,10.39-10.06,4.72-21.32-.33-29.69-7.72-12.8-25.45-17.15-45-12.34" transform="translate(-38.68 -65.67)"/>
  <path class="cls-3" d="M588.75,370.82c4.43-8.74,4.92-14.27-1.07-19-7.61-6-14.69,4.92-18.3,13.56-4.06,9.72,2.54,13.52,9.33,18.5,10.11,7.42,19,2.71,25.78-9.51,6.86-12.44-.73-25.14-9.94-33.14-10.92-9.47-21.64-2.86-29.55,2.89-12.09,8.8-14.89,26.84-8.41,45.91" transform="translate(-38.68 -65.67)"/>
  <path class="cls-11" d="M120.76,307.4l-18.53,23.39a5.1,5.1,0,0,0,.73,7.1l8.17,8.28c2.26,1.89-5.32,14.53-7.34,16.67h0a5.11,5.11,0,0,0,4.95,8.46,1.22,1.22,0,0,0,.53-.3l17.66-21.8c5.53-4.56,3.33-6.29,2.64-7.17l-11.14-8.9.2-1.56,10.09-19.7a8.6,8.6,0,0,0-.05-2.68c-.84-4.52-3.62-5.82-7.28-2.47A5.77,5.77,0,0,0,120.76,307.4Z" transform="translate(-38.68 -65.67)"/>
  <path class="cls-11" d="M489.27,563.54c-.77-3.71-6.08-29.21-6.08-29.21a5.11,5.11,0,0,0-5.91-4l-11.6,1c-2.9.53-7.75-13.4-8.1-16.32h0a5.1,5.1,0,0,0-9.66-1.62,1.13,1.13,0,0,0-.11.6l5.42,27.53c0,7.16,2.7,6.58,3.81,6.61l14-2.84,1.07,1.15,8.66,20.37a8.67,8.67,0,0,0,2.09,1.68c4,2.25,6.79.95,6.57-4A5.82,5.82,0,0,0,489.27,563.54Z" transform="translate(-38.68 -65.67)"/>
  <path class="cls-11" d="M477.2,85.14l18.54,23.39a5.11,5.11,0,0,1-.73,7.09l-8.18,8.29c-2.26,1.89,5.33,14.53,7.35,16.67h0a5.11,5.11,0,0,1-5,8.46,1.28,1.28,0,0,1-.53-.3L471,126.94c-5.52-4.56-3.32-6.29-2.63-7.17l11.13-8.9-.19-1.56-10.1-19.7a8.92,8.92,0,0,1,.05-2.68c.85-4.53,3.63-5.82,7.29-2.47A5.68,5.68,0,0,1,477.2,85.14Z" transform="translate(-38.68 -65.67)"/>
  <path class="cls-12" d="M224.61,169q10.17,20.36,20.35,40.7" transform="translate(-38.68 -65.67)"/>
  <path class="cls-12" d="M449.76,164.76q-14.1,17.85-28.22,35.69" transform="translate(-38.68 -65.67)"/>
  <path class="cls-12" d="M528,406.4l-34.5-29.67" transform="translate(-38.68 -65.67)"/>
  <path class="cls-12" d="M185.56,382.77q14.79-17.29,29.57-34.58" transform="translate(-38.68 -65.67)"/>
  <path class="cls-12" d="M212.82,541.49l4.8-45.24" transform="translate(-38.68 -65.67)"/>
  <ellipse class="cls-12" cx="183.75" cy="181.64" rx="6.43" ry="5.48"/>
  <ellipse class="cls-12" cx="31.93" cy="338.16" rx="6.43" ry="5.48"/>
  <ellipse class="cls-12" cx="172.01" cy="353.03" rx="6.43" ry="5.48"/>
  <ellipse class="cls-12" cx="407.97" cy="336.6" rx="6.43" ry="5.48"/>
  <ellipse class="cls-12" cx="244.23" cy="88.35" rx="12.13" ry="10.33"/>
  <ellipse class="cls-12" cx="39.97" cy="66.44" rx="12.13" ry="10.33"/>
  <path class="cls-3" d="M553.66,181.3c-4.73-23.3,32.29-15.77,17.66-5.75-34.18,10.23-31.71-32.81.38-30.33,6.14,1.54,12.67,5.76,7.68,10.75-38.73,15.14-22.86-53.46,6.91-29.17,16.81,13.71-34.82,14.45-20.73-13.44" transform="translate(-38.68 -65.67)"/>
  <path class="cls-3" d="M95.7,591.18c5-19.34,30.2-.06,15.46,2.14-29.58-4.82-11.92-36.44,11.42-22.78,4.08,3.41,7.46,9,1.85,10.94-34.82-2.78,2.36-48.79,15.94-19.51,7.67,16.54-31.62-1.86-10.74-17.77" transform="translate(-38.68 -65.67)"/>
  <path class="cls-3" d="M94,280.53c-4.07-23.43-35.82-2.95-18.55,1.06C111,278.69,93,239.49,64,253.47c-5.16,3.67-9.7,10-3.24,12.81,41.58,0,1.85-58.11-17-24.66-10.67,18.89,37.7.8,14.43-20.06" transform="translate(-38.68 -65.67)"/>
  <rect class="cls-3" x="204.65" y="95.48" width="28.17" height="46.96" rx="6.26" transform="translate(-68.85 59.64) rotate(-30)"/>
  <rect class="cls-3" x="552.91" y="228.52" width="28.17" height="46.96" rx="6.26" transform="translate(340.07 -404.9) rotate(48.38)"/>
  <rect class="cls-3" x="125.61" y="471.91" width="28.17" height="46.96" rx="6.26" transform="translate(378.54 -3.76) rotate(48.38)"/>
  <rect class="cls-3" x="475.43" y="440.61" width="28.17" height="46.96" rx="6.26" transform="translate(1118.93 491.54) rotate(144.46)"/>
</svg>
