<svg id="Layer_4" data-name="Layer 4" xmlns="http://www.w3.org/2000/svg" width="618.36" height="632.49" viewBox="0 0 618.36 632.49">
  <defs>
    <style>
      .cls-1, .cls-3, .cls-4 {
        fill: #231f20;
      }

      .cls-1, .cls-2, .cls-4 {
        stroke: #231f20;
        stroke-miterlimit: 10;
      }

      .cls-1 {
        stroke-width: 11px;
      }

      .cls-2 {
        fill: none;
        stroke-width: 2px;
      }
    </style>
  </defs>
  <g>
    <path class="cls-1" d="M353.1,646.22" transform="translate(-15.82 -3.28)"/>
    <path class="cls-1" d="M317.4,333.85" transform="translate(-15.82 -3.28)"/>
    <path class="cls-2" d="M355.09,158c0,9.71-6.33,18.35-16.16,23.85h0c0,15.26-20.61,27.63-46,27.63a67.47,67.47,0,0,1-28.31-5.84c-7.58,6.29-26,10.73-47.61,10.73-24.66,0-45.26-5.8-50.19-13.53-8.16,4-18.55,6.38-29.87,6.38-16.86,0-31.67-5.3-40.11-13.31-20,.61-39-3.85-45.95-9.09-17.15-1.41-30.26-9.19-30.26-18.56,0-8.79,11.51-16.16,27.06-18.22v-.2c0-16.6,18.51-30.07,41.34-30.07a53.93,53.93,0,0,1,18.42,3.15,26.46,26.46,0,0,1,20.67-10.29,25.35,25.35,0,0,1,12.18,3.12c7.32-8.41,20.23-14,34.94-14,22.51,0,40.83,13.09,41.33,29.38a54.86,54.86,0,0,1,16-2.35,52.44,52.44,0,0,1,23.63,5.4,37.62,37.62,0,0,1,16.21-3.52,36.85,36.85,0,0,1,18.05,4.47,52.71,52.71,0,0,1,23.3-5.22C336.58,127.88,355.09,141.34,355.09,158Z" transform="translate(-15.82 -3.28)"/>
    <path class="cls-2" d="M292.41,418c0,7.73-18.4,14-41.1,14-3.91,0-7.69-.19-11.27-.54-7.19,7.42-24.18,12.62-44,12.62-15.53,0-29.33-3.2-38-8.16a164.09,164.09,0,0,1-36.92,3.94c-35.13,0-64-9.62-66.77-21.86-21.2-1.26-37.52-9-37.52-18.29,0-10.21,19.56-18.48,43.69-18.48a89.37,89.37,0,0,1,25.43,3.45A33.74,33.74,0,0,1,109,376.06a36.14,36.14,0,0,1,10.1,1.41,81.37,81.37,0,0,1,21.75,0c3.52-6.61,15-11.45,28.58-11.45,16.41,0,29.7,7,29.7,15.72a8.61,8.61,0,0,1-.54,3c1.66,0,3.34-.08,5-.08,30.52,0,55.26,8.66,55.26,19.34v.24C278,405.48,292.41,411.18,292.41,418Z" transform="translate(-15.82 -3.28)"/>
    <path class="cls-2" d="M623.17,248.39c3,2,4.8,4.56,4.8,7.34,0,6.48-9.78,11.73-21.83,11.73a37.48,37.48,0,0,1-10.28-1.38c-2.7,2.67-7.45,4.86-13.38,6.19a6.14,6.14,0,0,1,.23,1.65c0,8.79-19,15.93-42.49,15.93-16.33,0-30.51-3.46-37.62-8.54a97.51,97.51,0,0,1-28.18,3.92,98.89,98.89,0,0,1-26.36-3.39,68.21,68.21,0,0,1-16.81,2c-19.13,0-34.64-7.13-34.64-15.93,0-7.16,10.29-13.22,24.44-15.23-2.42-2.17-3.79-4.63-3.79-7.24,0-8.45,14.29-15.36,32.36-15.9,8.22-7.67,25.48-13,45.45-13a107.3,107.3,0,0,1,14.64,1c4.71-8.83,20-15.3,38.23-15.3,20.95,0,38.11,8.59,39.61,19.47a75.31,75.31,0,0,1,9-.53c15.38,0,27.86,4.52,27.86,10.09a4.81,4.81,0,0,1-1.57,3.34c6.39,1.75,10.36,4.21,10.36,6.93S629.35,246.65,623.17,248.39Z" transform="translate(-15.82 -3.28)"/>
    <path class="cls-2" d="M608.5,483a8.07,8.07,0,0,1,2.82,5.73c0,9.11-20.31,16.5-45.37,16.5-15.28,0-28.8-2.75-37-7a120.83,120.83,0,0,1-32.57,4.16c-16.91,0-32-3-42.15-7.65a26,26,0,0,1-9.55,1.73,24.36,24.36,0,0,1-12.48-3.17c-9.26,4.31-26.88,7.22-47.09,7.22-29.82,0-54-6.34-54-14.17,0-3.39,4.55-6.51,12.15-8.94-6.56-3-10.3-6.49-10.3-10.2,0-4,4.37-7.75,11.93-10.91,2.19-14.31,21.84-25.51,45.78-25.51a70.8,70.8,0,0,1,20,2.8c4.29-9.48,19.82-16.49,38.33-16.49,14.11,0,26.5,4.08,33.49,10.22,18.16,2,32.82,7.1,39.59,13.71a91.7,91.7,0,0,1,15-1.21,81.89,81.89,0,0,1,25.62,3.81,26.24,26.24,0,0,1,16-5.37c11.17,0,20.64,6.76,23.92,16.12C612.92,457.21,620,463,620,469.73,620,475.08,615.49,479.84,608.5,483Z" transform="translate(-15.82 -3.28)"/>
    <path class="cls-3" d="M274.26,69.89l1.61,13.26a1.37,1.37,0,0,0,1,1L285,86.54c5.32,3-1.31,5.53-1.35,5.54l-7,1.49-.12.05a1.36,1.36,0,0,0-.63,1.55l.85,6.62a1.73,1.73,0,0,1-2.73,1.83l-5.78-8a1.72,1.72,0,0,0-2.35.22l-3.74,4.24a1.73,1.73,0,0,1-3-1.06l-.25-5a1.74,1.74,0,0,0-.89-1.42l-4.43-2.46a1.73,1.73,0,0,1,.43-3.2l9.89-2.38a1.4,1.4,0,0,0,.84-.61l7.08-14.51A1.38,1.38,0,0,1,274.26,69.89Z" transform="translate(-15.82 -3.28)"/>
    <path class="cls-3" d="M73,252.34l-8.9,8.4a1.26,1.26,0,0,0-.23,1.25l1.45,8.76c.69,5.55-4.79,2.05-4.82,2l-3.69-5.84-.09-.06a1.27,1.27,0,0,0-1.5.38l-7,6.16a1.58,1.58,0,0,1-2.83-1L49.27,263a1.59,1.59,0,0,0-1.44-1.62l-8.31-1.59a1.59,1.59,0,0,1-.86-2.81s8.81-3.72,8.74-4.26l1.65-6.26A1.58,1.58,0,0,1,51.64,245l4.88,7.64a1.24,1.24,0,0,0,.9.29L72,250.26A1.26,1.26,0,0,1,73,252.34Z" transform="translate(-15.82 -3.28)"/>
    <path class="cls-3" d="M594.37,620.89l-5.17-3.58a3.14,3.14,0,0,1-1.36-2.49l-.15-5.34a3.14,3.14,0,0,0-5.5-2l-3,3.37a3.15,3.15,0,0,1-4.63.1L571,608.73c-2.07-2.16-4.38,1.79-2.33,4.15l2.81,6.6a3.1,3.1,0,0,1-.92,2.58l-6.26,4.74c-2,2-1.23,3.76,1.59,3.75l6.31-1.87a3.13,3.13,0,0,1,3.09,2.51l.42,2.07a3.14,3.14,0,0,0,5.57,1.28l4-5.22a3.12,3.12,0,0,1,1.7-1.12l6.44-1.69A3.14,3.14,0,0,0,594.37,620.89Z" transform="translate(-15.82 -3.28)"/>
    <path class="cls-3" d="M453.77,521.42l-4.88,6a3.88,3.88,0,0,1-3.19,1.42l-6.57-.31a3.87,3.87,0,0,0-2.95,6.57l3.85,3.95a3.86,3.86,0,0,1-.31,5.69L436.63,549c-2.86,2.34,1.78,5.56,4.87,3.25l8.37-2.83a3.93,3.93,0,0,1,3.09,1.38l5.22,8.14c2.23,2.66,4.51,1.86,4.76-1.6l-1.71-7.93a3.87,3.87,0,0,1,3.38-3.55l2.58-.32a3.87,3.87,0,0,0,2.1-6.72l-6-5.41a3.94,3.94,0,0,1-1.22-2.19l-1.46-8.07A3.87,3.87,0,0,0,453.77,521.42Z" transform="translate(-15.82 -3.28)"/>
    <path class="cls-4" d="M172.8,314.86l.75,5.5a1.67,1.67,0,0,0,1.34,1.46l9.17,1.74c3.35.55,3.5,3.92.42,5.44l-9.35,2.94a1.82,1.82,0,0,0-.81,2.26l2.13,5.57c.63,1.66-1.16,3.15-2.45,2.05l-5.32-4.48a1.5,1.5,0,0,0-2,0L159.42,344a1.62,1.62,0,0,1-2.56-1.79l2.28-9.33a1.75,1.75,0,0,0-1.31-2.17l-9.07-1.45a1.79,1.79,0,0,1-.31-3.37l13.23-5.18a1.58,1.58,0,0,0,.73-.58l4.76-6.84C168.86,310.85,172.39,311.85,172.8,314.86Z" transform="translate(-15.82 -3.28)"/>
    <path class="cls-4" d="M105.44,18.75l-4.1,4.7a1.94,1.94,0,0,0-.19,2.32L107,35.6c2.19,3.53-.58,6.12-4.34,4.36l-9.94-6.59a2,2,0,0,0-2.58.89L87,40.31a2,2,0,0,1-3.7-.79l-.39-8.23a2,2,0,0,0-1.63-1.84l-11.42-2a2,2,0,0,1-.51-3.7l9.79-4.67A2,2,0,0,0,80,16.31L74,6.79a2,2,0,0,1,2.64-2.74l14.94,8.57a1.89,1.89,0,0,0,1.09.25l9.63-.53A3.87,3.87,0,0,1,105.44,18.75Z" transform="translate(-15.82 -3.28)"/>
    <path class="cls-4" d="M218.62,548.44l-4.6.27a1.45,1.45,0,0,0-1.32,1.1l-2.16,8.13c-.72,3-3.51,2.86-4.52,0l-1.68-8.63a1.45,1.45,0,0,0-1.8-.9l-4.78,1.51a1.44,1.44,0,0,1-1.49-2.35l4.12-4.46a1.43,1.43,0,0,0,.12-1.8l-4.87-7a1.44,1.44,0,0,1,1.68-2.18l7.52,2.73a1.44,1.44,0,0,0,1.89-1l1.93-8.06a1.44,1.44,0,0,1,2.8,0L214.68,538a1.48,1.48,0,0,0,.42.7l5.27,4.79A2.85,2.85,0,0,1,218.62,548.44Z" transform="translate(-15.82 -3.28)"/>
    <path class="cls-4" d="M506.42,126l-4.26,1.35a1.4,1.4,0,0,0-1,1.35l-.1,8.17c0,3-2.63,3.52-4.27,1.05l-3.63-7.73a1.39,1.39,0,0,0-1.9-.41l-4.14,2.55a1.4,1.4,0,0,1-2-1.86L488,125.3a1.38,1.38,0,0,0-.31-1.72l-6.25-5.45a1.4,1.4,0,0,1,1.07-2.45l7.72.78a1.39,1.39,0,0,0,1.54-1.41l-.1-8a1.4,1.4,0,0,1,2.63-.69l5.95,10.79a1.32,1.32,0,0,0,.56.56l6.09,3.26A2.76,2.76,0,0,1,506.42,126Z" transform="translate(-15.82 -3.28)"/>
    <path class="cls-3" d="M469.68,366.12l3.75,5.1a3.55,3.55,0,0,1,.79,1.88l-.91,10.38c.26,2.58,2.78,3,5,1.62l6.84-5.7a3.52,3.52,0,0,1,4.77,1l3,3.41c1.76,2.61,5.38,2,5.95-1.11l-1.1-11.84a3.53,3.53,0,0,1,1.19-2.05l5-3.62c2.56-2.17.58-4.43-2.77-4.28l-5.69.33a3.51,3.51,0,0,1-3.43-2.22l-2.17-8.1c-1-2.54-3.42-2.52-5.08-.35l-4.35,8.84a3.49,3.49,0,0,1-2.52,1.37l-5.66.91C467.59,362.07,466.69,362.48,469.68,366.12Z" transform="translate(-15.82 -3.28)"/>
    <g>
      <path class="cls-4" d="M377.37,271.76c-25.23-38.55-77.82-43.78-107.69-16-19.42,18.05-31.34,40.87-27.76,64.24a58.61,58.61,0,0,0,16.39,36c6.54,6.82,22.19,20.51,38.66,24.9,9.83,2.62,38.67,6.56,57-8.52,11.22-9.21,24.21-24.53,27-29.7,4.19-7.87,9.38-17.62,10.1-30.22C392.28,291.11,379.66,275.25,377.37,271.76Zm-50.26,82.3c-48.91-5.51-86.86-71-47.16-99.67,22-15.9,69.4-23.65,99.64,24.95C401.84,315.08,379.48,360,327.11,354.06Z" transform="translate(-15.82 -3.28)"/>
      <path class="cls-4" d="M296.34,268.12c39.76,10.37,48.26,12.88,62.15,18.17,7.64,2.9,6.33,9.34,2.21,11.81-9.35,5.62-20.93,18.12-46.52,28.8-4.62,1.93-7.87.66-8.87-4.69-.17-.9-13.51-45-14-45.81-1.85-2.76-1.41-6,1.31-7.6A4.87,4.87,0,0,1,296.34,268.12Z" transform="translate(-15.82 -3.28)"/>
    </g>
  </g>
</svg>
