<svg id="Layer_1" data-name="Layer 1" xmlns="http://www.w3.org/2000/svg" width="308.53" height="407.29" viewBox="0 0 308.53 407.29">
  <defs>
    <style>
      .cls-1, .cls-10, .cls-11, .cls-12, .cls-2, .cls-3, .cls-4, .cls-5, .cls-6, .cls-7, .cls-8, .cls-9 {
        stroke: #000;
        stroke-linecap: round;
        stroke-linejoin: round;
      }

      .cls-1, .cls-2 {
        stroke-width: 3px;
      }

      .cls-11, .cls-12, .cls-2, .cls-4, .cls-7, .cls-8 {
        fill: #fff;
      }

      .cls-3, .cls-4 {
        stroke-width: 5px;
      }

      .cls-5, .cls-8, .cls-9 {
        stroke-width: 6px;
      }

      .cls-6, .cls-7 {
        stroke-width: 4px;
      }

      .cls-9 {
        fill: none;
      }

      .cls-12 {
        stroke-width: 2px;
      }
    </style>
  </defs>
  <g>
    <polygon class="cls-1" points="235.5 382.11 187.64 388.78 189.44 339.61 235.85 343.77 235.5 382.11"/>
    <polygon class="cls-1" points="215.5 391.26 201.02 389.31 200.59 346.31 217.06 350.18 215.5 391.26"/>
    <polygon class="cls-2" points="237.02 381.87 215.5 391.26 215.07 348.27 235.85 343.77 237.02 381.87"/>
    <path class="cls-3" d="M359.14,438l3.29,1.38,16.65-3c-.83-7-.86-17.06-11.62-15.77C357.36,421.83,358.73,431,359.14,438Z" transform="translate(-165.64 -97.87)"/>
    <path class="cls-4" d="M362.43,439.36l16.65-3c-.83-7,.65-16.78-9-15.62S361.6,432.39,362.43,439.36Z" transform="translate(-165.64 -97.87)"/>
    <path class="cls-4" d="M248.09,442.57s-9,27-9,45c0,20.12,135,20.12,135,0,0-18-9-45-9-45C360.78,429.65,252.39,429.26,248.09,442.57Z" transform="translate(-165.64 -97.87)"/>
    <path class="cls-3" d="M273.75,436.24l6.25,3.12,32.88-3.62c-.72-13.71.54-33.39-20.62-32.29C272.4,404.48,273.87,422.64,273.75,436.24Z" transform="translate(-165.64 -97.87)"/>
    <path class="cls-4" d="M280,439.36l32.88-3.62c-.72-13.71,3.46-32.64-15.6-31.65S279.29,425.64,280,439.36Z" transform="translate(-165.64 -97.87)"/>
    <rect class="cls-5" x="316.55" y="334.71" width="72.42" height="35.8" transform="translate(-310.72 285.17) rotate(-48.48)"/>
    <polygon class="cls-6" points="191.07 239.54 164.87 271.7 148.36 256.95 175.77 225.99 191.07 239.54"/>
    <polygon class="cls-7" points="185.79 226.2 157.43 257.62 148.36 256.95 175.77 225.99 185.79 226.2"/>
    <path class="cls-5" d="M283.42,353.74H423.77a0,0,0,0,1,0,0V386a0,0,0,0,1,0,0H283.42a16.13,16.13,0,0,1-16.13-16.13v0a16.13,16.13,0,0,1,16.13-16.13Z" transform="translate(-326.08 285.58) rotate(-48.48)"/>
    <path class="cls-8" d="M288.46,355.34H428.81a0,0,0,0,1,0,0V387.6a0,0,0,0,1,0,0H288.46a16.13,16.13,0,0,1-16.13-16.13v0A16.13,16.13,0,0,1,288.46,355.34Z" transform="translate(-325.58 289.89) rotate(-48.48)"/>
    <path class="cls-6" d="M353.44,382.16h98.9a0,0,0,0,1,0,0v10.93a0,0,0,0,1,0,0h-98.9a5.16,5.16,0,0,1-5.16-5.16v-.61A5.16,5.16,0,0,1,353.44,382.16Z" transform="translate(-309.22 410.9) rotate(-56.64)"/>
    <path class="cls-7" d="M355.21,380.75H456.35a.3.3,0,0,1,.3.3v10.32a.3.3,0,0,1-.3.3H355.21a5.47,5.47,0,0,1-5.47-5.47v0a5.47,5.47,0,0,1,5.47-5.47Z" transform="translate(-306.74 412.68) rotate(-56.64)"/>
    <path class="cls-9" d="M444.65,335.61c.14-.38,50.09,52.69,12.52,58.43-35.64,5.45-48.55,58.95-53.74,60.53" transform="translate(-165.64 -97.87)"/>
    <polygon class="cls-1" points="271.02 233.54 262.22 247.29 250.88 235.95 264.38 222.45 271.02 233.54"/>
    <polygon class="cls-1" points="284.5 232.53 275.63 247.86 262.22 247.29 271.81 222.26 284.5 232.53"/>
    <path class="cls-2" d="M393.85,383.48c10.95-15.39,18.51-29.83,29.87-44.09,1.85-2.38,7.26-2.63,9.65-.78s5.15,6.13,3.33,9.65l-28.05,44.22c.26-2.61-4.45-7.86-6.84-9.32C399.22,381.56,395.75,380.47,393.85,383.48Z" transform="translate(-165.64 -97.87)"/>
    <polygon class="cls-2" points="284.5 232.53 275.63 247.86 260.68 232.92 272.76 218.96 284.5 232.53"/>
    <path class="cls-5" d="M307.26,198.73h3.34a18.21,18.21,0,0,1,18.21,18.21v7.45a18.21,18.21,0,0,1-18.21,18.21h-3.34a16.13,16.13,0,0,1-16.13-16.13V214.86A16.13,16.13,0,0,1,307.26,198.73Z" transform="translate(81.19 -252.41) rotate(45)"/>
    <path class="cls-5" d="M305.06,258H445.4a0,0,0,0,1,0,0v32.26a0,0,0,0,1,0,0H305.06a16.13,16.13,0,0,1-16.13-16.13v0A16.13,16.13,0,0,1,305.06,258Z" transform="matrix(-0.74, -0.68, 0.68, -0.74, 287.26, 626.46)"/>
    <path class="cls-8" d="M313.4,257.73H453.74a0,0,0,0,1,0,0V290a0,0,0,0,1,0,0H313.4a16.13,16.13,0,0,1-16.13-16.13v0A16.13,16.13,0,0,1,313.4,257.73Z" transform="translate(301.96 631.54) rotate(-137.53)"/>
    <path class="cls-8" d="M183.41,241.66l141.86-136c8.92-8.55,21.13-4.86,31.21,5.65h0c10.08,10.52,14.23,23.87,5.31,32.43l-141.87,136c-3.36,3.23-51.27,18.84-51.27,18.84C168.12,298.9,180.32,244.61,183.41,241.66Z" transform="translate(-165.64 -97.87)"/>
    <line class="cls-9" x1="58.32" y1="162.09" x2="176.23" y2="47.31"/>
    <line class="cls-9" x1="39.02" y1="145.4" x2="156.93" y2="31.13"/>
    <path class="cls-8" d="M306,124l19.27-18.43c7.21-7.39,21.13-4.86,31.21,5.65h0c10.08,10.52,13.56,22.44,5.31,32.43l-18.22,16.74C352.17,140.87,318.52,117.78,306,124Z" transform="translate(-165.64 -97.87)"/>
    <path class="cls-8" d="M312.3,194.83h3.34A18.21,18.21,0,0,1,333.85,213v7.45a18.21,18.21,0,0,1-18.21,18.21H312.3a16.13,16.13,0,0,1-16.13-16.13V211A16.13,16.13,0,0,1,312.3,194.83Z" transform="translate(79.91 -257.12) rotate(45)"/>
    <path class="cls-8" d="M242.22,183.78c9.91-10.15,38.61-36.52,38.61-36.52,17.21-10.43,53.29,23.87,27.27,50.18L277.7,225C290.53,179.91,242.22,183.78,242.22,183.78Z" transform="translate(-165.64 -97.87)"/>
    <rect class="cls-8" x="330.89" y="334.74" width="77.84" height="38.48" transform="translate(-306 298.39) rotate(-48.48)"/>
    <polygon class="cls-8" points="215.56 214.22 164.87 271.7 149.72 269.99 197.72 215.76 215.56 214.22"/>
    <path class="cls-3" d="M296.4,447.11l7.85,3.91,41.27-4.54c-.89-17.22.68-41.92-25.88-40.54C294.7,407.23,296.55,430,296.4,447.11Z" transform="translate(-165.64 -97.87)"/>
    <path class="cls-4" d="M304.25,451l41.27-4.54c-.89-17.22,4.35-41-19.58-39.74S303.35,433.8,304.25,451Z" transform="translate(-165.64 -97.87)"/>
    <path class="cls-3" d="M374.58,441.73l3.82,1.61L397.69,440c-.93-8.08-.93-19.76-13.39-18.31C372.6,423,374.15,433.69,374.58,441.73Z" transform="translate(-165.64 -97.87)"/>
    <path class="cls-4" d="M378.4,443.34,397.69,440c-.93-8.08.83-19.43-10.4-18.13S377.46,435.26,378.4,443.34Z" transform="translate(-165.64 -97.87)"/>
    <rect class="cls-10" x="333.98" y="459.98" width="25.83" height="9.2" rx="4.6" transform="matrix(0.98, -0.2, 0.2, 0.98, -250.91, -19.81)"/>
    <path class="cls-10" d="M259.44,465.39l-1,17.28c-.79,2.42-2.48,4.51-4.89,3.72h0c-2.42-.79-3.92-2.15-4.11-5.48l1.24-18.38c.79-2.42,2.8-4.32,5.21-3.53h0C258.33,459.79,259.43,461.54,259.44,465.39Z" transform="translate(-165.64 -97.87)"/>
    <path class="cls-10" d="M275.22,469.43l-1,17.29c-.79,2.41-2.48,4.5-4.89,3.71h0c-2.42-.79-3.92-2.15-4.11-5.47l1.24-18.39c.79-2.41,2.8-4.32,5.22-3.53h0C274.11,463.83,275.22,465.59,275.22,469.43Z" transform="translate(-165.64 -97.87)"/>
    <rect class="cls-10" x="337.7" y="476.41" width="25.83" height="9.2" rx="4.6" transform="translate(-254.09 -18.75) rotate(-11.44)"/>
    <circle class="cls-10" cx="149.43" cy="129.94" r="2.54"/>
    <circle class="cls-10" cx="160.39" cy="119.37" r="2.54"/>
    <circle class="cls-10" cx="275.04" cy="234.03" r="3.46"/>
    <circle class="cls-10" cx="160.71" cy="387.35" r="4.7"/>
    <circle class="cls-10" cx="190.13" cy="272.76" r="8.67"/>
    <circle class="cls-11" cx="192.54" cy="272.44" r="6.91"/>
    <circle class="cls-10" cx="255.73" cy="216.68" r="8.67"/>
    <circle class="cls-11" cx="258.15" cy="216.35" r="6.91"/>
    <circle class="cls-12" cx="158.63" cy="330.22" r="13.43"/>
    <circle class="cls-10" cx="162.67" cy="330.09" r="12.39"/>
    <circle class="cls-11" cx="163.39" cy="330.42" r="8.41"/>
    <circle class="cls-10" cx="165.08" cy="329.76" r="6.98"/>
    <circle class="cls-11" cx="165.08" cy="329.76" r="2.54"/>
    <path class="cls-8" d="M248.48,173.87" transform="translate(-165.64 -97.87)"/>
    <polyline class="cls-9" points="17.77 143.79 39.02 145.4 40.06 162.09 58.32 162.09 54.29 181.87"/>
    <path class="cls-9" d="M69,216.65" transform="translate(-165.64 -97.87)"/>
    <path class="cls-6" d="M182.35,293.87l-13.7,4.7,1.57-13.31c.67-3,5.08-6.65,11.74-2C182,283.3,186.74,292.5,182.35,293.87Z" transform="translate(-165.64 -97.87)"/>
    <path class="cls-8" d="M306,124l11.87-11.21s32.35,3.65,37,38.08l-11.34,9.52C336.65,127.43,306,124,306,124Z" transform="translate(-165.64 -97.87)"/>
  </g>
</svg>
