<?xml version="1.0" encoding="UTF-8" standalone="no"?>
<svg
   width="100%"
   height="100%"
   viewBox="0 0 26.458333 26.458334"
   version="1.1"
   classname="warning__svg"
   id="svg886"
   xmlns="http://www.w3.org/2000/svg"
   xmlns:svg="http://www.w3.org/2000/svg">
  <defs
     id="defs890" />
  <path
     id="circle880"
     style="fill:#d93025;fill-opacity:1;stroke:#d93025;stroke-width:1.32292;stroke-linecap:round;stroke-linejoin:round;stroke-miterlimit:4;stroke-dasharray:none;stroke-opacity:1"
     d="M 13.228516 1.328125 A 11.900856 11.900856 0 0 0 1.328125 13.228516 A 11.900856 11.900856 0 0 0 13.228516 25.130859 A 11.900856 11.900856 0 0 0 25.130859 13.228516 A 11.900856 11.900856 0 0 0 13.228516 1.328125 z M 13.228516 2.4707031 C 14.855158 2.4707031 16.482422 3.6908946 16.482422 6.1308594 L 14.53125 14.589844 C 14.205922 16.216488 12.253065 16.216488 11.927734 14.589844 L 9.9765625 6.1308594 C 9.9765625 3.6908947 11.601873 2.4707031 13.228516 2.4707031 z M 13.228516 17.496094 A 2.2536688 2.2536688 0 0 1 15.482422 19.75 A 2.2536688 2.2536688 0 0 1 13.228516 22.003906 A 2.2536688 2.2536688 0 0 1 10.974609 19.75 A 2.2536688 2.2536688 0 0 1 13.228516 17.496094 z " />
</svg>
